<?xml version="1.0" encoding="UTF-8" standalone="no"?>
<!-- Created with Inkscape (http://www.inkscape.org/) -->

<svg
   xmlns:dc="http://purl.org/dc/elements/1.1/"
   xmlns:cc="http://creativecommons.org/ns#"
   xmlns:rdf="http://www.w3.org/1999/02/22-rdf-syntax-ns#"
   xmlns:svg="http://www.w3.org/2000/svg"
   xmlns="http://www.w3.org/2000/svg"
   xmlns:sodipodi="http://sodipodi.sourceforge.net/DTD/sodipodi-0.dtd"
   xmlns:inkscape="http://www.inkscape.org/namespaces/inkscape"
   width="12mm"
   height="11mm"
   viewBox="0 0 12 11"
   version="1.1"
   id="svg8"
   inkscape:version="0.92.4 (f8dce91, 2019-08-02)"
   sodipodi:docname="drawing-25.svg">
  <defs
     id="defs2">
    <clipPath
       clipPathUnits="userSpaceOnUse"
       id="clipPath1363">
      <path
         d="m 436.22,594.375 h 34.271 V 549.561 H 436.22 Z"
         id="path1361"
         inkscape:connector-curvature="0" />
    </clipPath>
    <clipPath
       clipPathUnits="userSpaceOnUse"
       id="clipPath1143">
      <path
         d="M 192.425,502.158 H 241.48 V 457.303 H 192.425 Z"
         id="path1141"
         inkscape:connector-curvature="0" />
    </clipPath>
    <clipPath
       clipPathUnits="userSpaceOnUse"
       id="clipPath995">
      <path
         d="m 185.521,327.85 h 63.075 v -43.006 h -63.075 z"
         id="path993"
         inkscape:connector-curvature="0" />
    </clipPath>
    <clipPath
       clipPathUnits="userSpaceOnUse"
       id="clipPath1019">
      <path
         d="m 315.526,333.584 h 45.299 v -48.74 h -45.299 z"
         id="path1017"
         inkscape:connector-curvature="0" />
    </clipPath>
    <clipPath
       clipPathUnits="userSpaceOnUse"
       id="clipPath923">
      <path
         d="m 262.039,237.182 h 31.519 v -30.194 h -31.519 z"
         id="path921"
         inkscape:connector-curvature="0" />
    </clipPath>
  </defs>
  <sodipodi:namedview
     id="base"
     pagecolor="#ffffff"
     bordercolor="#666666"
     borderopacity="1.0"
     inkscape:pageopacity="0.0"
     inkscape:pageshadow="2"
     inkscape:zoom="3.959798"
     inkscape:cx="53.803231"
     inkscape:cy="21.80419"
     inkscape:document-units="mm"
     inkscape:current-layer="layer1"
     showgrid="false"
     inkscape:window-width="1850"
     inkscape:window-height="1016"
     inkscape:window-x="70"
     inkscape:window-y="27"
     inkscape:window-maximized="1" />
  <metadata
     id="metadata5">
    <rdf:RDF>
      <cc:Work
         rdf:about="">
        <dc:format>image/svg+xml</dc:format>
        <dc:type
           rdf:resource="http://purl.org/dc/dcmitype/StillImage" />
        <dc:title></dc:title>
      </cc:Work>
    </rdf:RDF>
  </metadata>
  <g
     inkscape:label="Layer 1"
     inkscape:groupmode="layer"
     id="layer1"
     transform="translate(0,-286)">
    <g
       transform="matrix(0.35277777,0,0,-0.35277777,-92.001116,369.8467)"
       id="g917">
      <g
         id="g919" />
      <g
         id="g935">
        <g
           clip-path="url(#clipPath923)"
           id="g933"
           style="opacity:0.9">
          <g
             transform="translate(284.2866,206.9883)"
             id="g927">
            <path
               d="m 0,0 c -8.032,0 -14.566,6.535 -14.566,14.566 0,8.034 6.534,14.567 14.566,14.567 3.183,0 6.205,-1.008 8.742,-2.914 0.585,-0.44 0.703,-1.27 0.264,-1.854 C 8.566,23.781 7.735,23.662 7.151,24.102 5.076,25.66 2.604,26.484 0,26.484 c -6.572,0 -11.918,-5.345 -11.918,-11.918 0,-6.57 5.346,-11.918 11.918,-11.918 2.603,0 5.075,0.825 7.15,2.383 C 7.735,5.471 8.565,5.352 9.005,4.768 9.443,4.184 9.326,3.354 8.741,2.914 6.203,1.008 3.182,0 0,0"
               style="fill:#303030;fill-opacity:1;fill-rule:nonzero;stroke:none"
               id="path925"
               inkscape:connector-curvature="0" />
          </g>
          <g
             transform="translate(264.9526,236.1211)"
             id="g931">
            <path
               d="m 0,0 c -1.022,0 -1.854,-0.832 -1.854,-1.854 0,-1.021 0.832,-1.853 1.854,-1.853 1.022,0 1.854,0.832 1.854,1.853 C 1.854,-0.832 1.022,0 0,0 m 0,-4.768 c -1.606,0 -2.914,1.309 -2.914,2.914 0,1.606 1.308,2.915 2.914,2.915 1.606,0 2.913,-1.309 2.913,-2.915 0,-1.605 -1.307,-2.914 -2.913,-2.914"
               style="fill:#303030;fill-opacity:1;fill-rule:nonzero;stroke:none"
               id="path929"
               inkscape:connector-curvature="0" />
          </g>
        </g>
      </g>
    </g>
  </g>
</svg>
