<?xml version="1.0" encoding="UTF-8" standalone="no"?>
<!-- Created with Inkscape (http://www.inkscape.org/) -->

<svg
   xmlns:dc="http://purl.org/dc/elements/1.1/"
   xmlns:cc="http://creativecommons.org/ns#"
   xmlns:rdf="http://www.w3.org/1999/02/22-rdf-syntax-ns#"
   xmlns:svg="http://www.w3.org/2000/svg"
   xmlns="http://www.w3.org/2000/svg"
   xmlns:sodipodi="http://sodipodi.sourceforge.net/DTD/sodipodi-0.dtd"
   xmlns:inkscape="http://www.inkscape.org/namespaces/inkscape"
   width="23mm"
   height="18mm"
   viewBox="0 0 23 18"
   version="1.1"
   id="svg8"
   inkscape:version="0.92.4 (f8dce91, 2019-08-02)"
   sodipodi:docname="drawing-6.svg">
  <defs
     id="defs2" />
  <sodipodi:namedview
     id="base"
     pagecolor="#ffffff"
     bordercolor="#666666"
     borderopacity="1.0"
     inkscape:pageopacity="0.0"
     inkscape:pageshadow="2"
     inkscape:zoom="3.959798"
     inkscape:cx="53.803231"
     inkscape:cy="-8.5003863"
     inkscape:document-units="mm"
     inkscape:current-layer="layer1"
     showgrid="false"
     inkscape:window-width="1850"
     inkscape:window-height="1016"
     inkscape:window-x="70"
     inkscape:window-y="27"
     inkscape:window-maximized="1" />
  <metadata
     id="metadata5">
    <rdf:RDF>
      <cc:Work
         rdf:about="">
        <dc:format>image/svg+xml</dc:format>
        <dc:type
           rdf:resource="http://purl.org/dc/dcmitype/StillImage" />
        <dc:title></dc:title>
      </cc:Work>
    </rdf:RDF>
  </metadata>
  <g
     inkscape:label="Layer 1"
     inkscape:groupmode="layer"
     id="layer1"
     transform="translate(0,-279)">
    <g
       transform="matrix(0.35277777,0,0,-0.35277777,-172.43663,1032.7698)"
       style="opacity:0.9"
       id="g3295">
      <g
         id="g2583"
         transform="translate(520.8911,2101.832)">
        <path
           inkscape:connector-curvature="0"
           id="path2581"
           style="fill:#B6DCFE;fill-opacity:1;fill-rule:nonzero;stroke:none"
           d="m 0,0 h -29.809 c -0.734,0 -1.33,0.596 -1.33,1.331 0,0.735 0.596,1.331 1.33,1.331 H 0 c 2.201,0 3.992,1.82 3.992,4.058 0,2.238 -1.791,4.059 -3.992,4.059 -0.735,0 -1.331,0.596 -1.331,1.331 0,0.735 0.596,1.33 1.331,1.33 3.669,0 6.653,-3.014 6.653,-6.72 C 6.653,3.015 3.669,0 0,0" />
      </g>
      <g
         id="g2587"
         transform="translate(520.8911,2096.5093)">
        <path
           inkscape:connector-curvature="0"
           id="path2585"
           style="fill:#B6DCFE;fill-opacity:1;fill-rule:nonzero;stroke:none"
           d="m 0,0 h -27.679 c -0.735,0 -1.331,0.596 -1.331,1.331 0,0.735 0.596,1.331 1.331,1.331 H 0 C 0.735,2.662 1.331,2.066 1.331,1.331 1.331,0.596 0.735,0 0,0" />
      </g>
      <g
         id="g2591"
         transform="translate(530.4722,2091.1865)">
        <path
           inkscape:connector-curvature="0"
           id="path2589"
           style="fill:#E1EBF2;fill-opacity:1;fill-rule:nonzero;stroke:none"
           d="m 0,0 h -1.064 c -0.736,0 -1.332,0.596 -1.332,1.331 0,0.734 0.596,1.33 1.332,1.33 H 0 c 11.007,0 19.961,8.922 19.961,19.888 0,10.986 -8.954,19.924 -19.961,19.924 -9.554,0 -17.796,-6.81 -19.598,-16.193 -0.077,-0.405 -0.338,-0.75 -0.706,-0.936 -0.367,-0.187 -0.8,-0.192 -1.172,-0.014 -1.6,0.761 -3.33,1.147 -5.138,1.147 -5.361,0 -10.11,-3.646 -11.547,-8.869 -0.195,-0.708 -0.929,-1.124 -1.637,-0.929 -0.709,0.196 -1.125,0.928 -0.93,1.636 1.755,6.373 7.559,10.824 14.114,10.824 1.648,0 3.244,-0.264 4.762,-0.786 2.619,9.815 11.565,16.781 21.852,16.781 12.475,0 22.622,-10.132 22.622,-22.585 C 22.622,10.115 12.475,0 0,0" />
      </g>
      <g
         id="g2595"
         transform="translate(520.8911,2085.9966)">
        <path
           inkscape:connector-curvature="0"
           id="path2593"
           style="fill:#B6DCFE;fill-opacity:1;fill-rule:nonzero;stroke:none"
           d="m 0,0 c -0.735,0 -1.331,0.596 -1.331,1.331 0,0.734 0.596,1.33 1.331,1.33 0.759,0 1.331,0.544 1.331,1.265 C 1.331,4.646 0.759,5.19 0,5.19 h -19.694 c -0.736,0 -1.331,0.596 -1.331,1.331 0,0.734 0.595,1.33 1.331,1.33 L 0,7.851 C 2.238,7.851 3.992,6.127 3.992,3.926 3.992,1.724 2.238,0 0,0" />
      </g>
    </g>
  </g>
</svg>
