<?xml version="1.0" encoding="UTF-8" standalone="no"?>
<!-- Created with Inkscape (http://www.inkscape.org/) -->

<svg
   xmlns:dc="http://purl.org/dc/elements/1.1/"
   xmlns:cc="http://creativecommons.org/ns#"
   xmlns:rdf="http://www.w3.org/1999/02/22-rdf-syntax-ns#"
   xmlns:svg="http://www.w3.org/2000/svg"
   xmlns="http://www.w3.org/2000/svg"
   xmlns:sodipodi="http://sodipodi.sourceforge.net/DTD/sodipodi-0.dtd"
   xmlns:inkscape="http://www.inkscape.org/namespaces/inkscape"
   width="24mm"
   height="17mm"
   viewBox="0 0 24 17"
   version="1.1"
   id="svg8"
   inkscape:version="0.92.4 (f8dce91, 2019-08-02)"
   sodipodi:docname="drawing.svg">
  <defs
     id="defs2" />
  <sodipodi:namedview
     id="base"
     pagecolor="#ffffff"
     bordercolor="#666666"
     borderopacity="1.0"
     inkscape:pageopacity="0.0"
     inkscape:pageshadow="2"
     inkscape:zoom="3.959798"
     inkscape:cx="18.523983"
     inkscape:cy="-3.3126036"
     inkscape:document-units="mm"
     inkscape:current-layer="layer1"
     showgrid="false"
     inkscape:window-width="1850"
     inkscape:window-height="1016"
     inkscape:window-x="70"
     inkscape:window-y="27"
     inkscape:window-maximized="1" />
  <metadata
     id="metadata5">
    <rdf:RDF>
      <cc:Work
         rdf:about="">
        <dc:format>image/svg+xml</dc:format>
        <dc:type
           rdf:resource="http://purl.org/dc/dcmitype/StillImage" />
        <dc:title></dc:title>
      </cc:Work>
    </rdf:RDF>
  </metadata>
  <g
     inkscape:label="Layer 1"
     inkscape:groupmode="layer"
     id="layer1"
     transform="translate(0,-280)">
    <path
       d="m 5.9426285,287.13081 c -2.312458,0 -4.193469,1.87043 -4.193469,4.16948 0,2.29905 1.881011,4.16948 4.193469,4.16948 h 9.3189785 c 3.854093,0 6.989233,-3.12385 6.989233,-6.96348 0,-3.84669 -3.13514,-6.97618 -6.989233,-6.97618 -3.345392,0 -6.2314675,2.38443 -6.8622335,5.66949 -0.02716,0.14182 -0.118534,0.26282 -0.246945,0.32809 -0.128764,0.0653 -0.280105,0.067 -0.410633,0.005 -0.560211,-0.2667 -1.165931,-0.40182 -1.799167,-0.40182 m 9.3189785,9.271 H 5.9426285 c -2.826102,0 -5.125508,-2.28847 -5.125508,-5.10152 0,-2.8127 2.299406,-5.10152 5.125508,-5.10152 0.577145,0 1.135945,0.0924 1.667933,0.27517 0.91687,-3.43676 4.0488315,-5.87587 7.6510455,-5.87587 4.367743,0 7.921273,3.54754 7.921273,7.90822 0,4.35363 -3.55353,7.89552 -7.921273,7.89552"
       style="opacity:0.9;fill:#E1EBF2;fill-opacity:1;fill-rule:nonzero;stroke:none;stroke-width:0.35277775"
       id="path2713"
       inkscape:connector-curvature="0" />
  </g>
</svg>
