<?xml version="1.0" encoding="UTF-8" standalone="no"?>
<!-- Created with Inkscape (http://www.inkscape.org/) -->

<svg
   xmlns:dc="http://purl.org/dc/elements/1.1/"
   xmlns:cc="http://creativecommons.org/ns#"
   xmlns:rdf="http://www.w3.org/1999/02/22-rdf-syntax-ns#"
   xmlns:svg="http://www.w3.org/2000/svg"
   xmlns="http://www.w3.org/2000/svg"
   xmlns:sodipodi="http://sodipodi.sourceforge.net/DTD/sodipodi-0.dtd"
   xmlns:inkscape="http://www.inkscape.org/namespaces/inkscape"
   width="12mm"
   height="11mm"
   viewBox="0 0 12 11"
   version="1.1"
   id="svg8"
   inkscape:version="0.92.4 (f8dce91, 2019-08-02)"
   sodipodi:docname="drawing-26.svg">
  <defs
     id="defs2">
    <clipPath
       clipPathUnits="userSpaceOnUse"
       id="clipPath1363">
      <path
         d="m 436.22,594.375 h 34.271 V 549.561 H 436.22 Z"
         id="path1361"
         inkscape:connector-curvature="0" />
    </clipPath>
    <clipPath
       clipPathUnits="userSpaceOnUse"
       id="clipPath1143">
      <path
         d="M 192.425,502.158 H 241.48 V 457.303 H 192.425 Z"
         id="path1141"
         inkscape:connector-curvature="0" />
    </clipPath>
    <clipPath
       clipPathUnits="userSpaceOnUse"
       id="clipPath995">
      <path
         d="m 185.521,327.85 h 63.075 v -43.006 h -63.075 z"
         id="path993"
         inkscape:connector-curvature="0" />
    </clipPath>
    <clipPath
       clipPathUnits="userSpaceOnUse"
       id="clipPath1019">
      <path
         d="m 315.526,333.584 h 45.299 v -48.74 h -45.299 z"
         id="path1017"
         inkscape:connector-curvature="0" />
    </clipPath>
    <clipPath
       clipPathUnits="userSpaceOnUse"
       id="clipPath923">
      <path
         d="m 262.039,237.182 h 31.519 v -30.194 h -31.519 z"
         id="path921"
         inkscape:connector-curvature="0" />
    </clipPath>
    <clipPath
       clipPathUnits="userSpaceOnUse"
       id="clipPath899">
      <path
         d="m 384.727,237.402 h 30.722 V 206.77 h -30.722 z"
         id="path897"
         inkscape:connector-curvature="0" />
    </clipPath>
  </defs>
  <sodipodi:namedview
     id="base"
     pagecolor="#ffffff"
     bordercolor="#666666"
     borderopacity="1.0"
     inkscape:pageopacity="0.0"
     inkscape:pageshadow="2"
     inkscape:zoom="3.959798"
     inkscape:cx="53.803231"
     inkscape:cy="21.80419"
     inkscape:document-units="mm"
     inkscape:current-layer="layer1"
     showgrid="false"
     inkscape:window-width="1850"
     inkscape:window-height="1016"
     inkscape:window-x="70"
     inkscape:window-y="27"
     inkscape:window-maximized="1" />
  <metadata
     id="metadata5">
    <rdf:RDF>
      <cc:Work
         rdf:about="">
        <dc:format>image/svg+xml</dc:format>
        <dc:type
           rdf:resource="http://purl.org/dc/dcmitype/StillImage" />
        <dc:title></dc:title>
      </cc:Work>
    </rdf:RDF>
  </metadata>
  <g
     inkscape:label="Layer 1"
     inkscape:groupmode="layer"
     id="layer1"
     transform="translate(0,-286)">
    <g
       transform="matrix(0.35277777,0,0,-0.35277777,-135.14208,369.847)"
       id="g893">
      <g
         id="g895" />
      <g
         id="g915">
        <g
           clip-path="url(#clipPath899)"
           id="g913"
           style="opacity:0.9">
          <g
             transform="translate(398.4985,206.7695)"
             id="g903">
            <path
               d="m 0,0 c -0.731,0 -1.324,0.592 -1.324,1.324 v 26.219 c 0,0.73 0.593,1.324 1.324,1.324 h 15.626 c 0.731,0 1.324,-0.594 1.324,-1.324 0,-0.732 -0.593,-1.324 -1.324,-1.324 H 1.324 V 1.324 C 1.324,0.592 0.731,0 0,0"
               style="fill:#303030;fill-opacity:1;fill-rule:nonzero;stroke:none"
               id="path901"
               inkscape:connector-curvature="0" />
          </g>
          <g
             transform="translate(412.0054,220.8047)"
             id="g907">
            <path
               d="m 0,0 h -13.242 c -0.731,0 -1.324,0.594 -1.324,1.324 0,0.733 0.593,1.324 1.324,1.324 H 0 C 0.731,2.648 1.324,2.057 1.324,1.324 1.324,0.594 0.731,0 0,0"
               style="fill:#303030;fill-opacity:1;fill-rule:nonzero;stroke:none"
               id="path905"
               inkscape:connector-curvature="0" />
          </g>
          <g
             transform="translate(387.6401,236.3418)"
             id="g911">
            <path
               d="m 0,0 c -1.021,0 -1.854,-0.83 -1.854,-1.854 0,-1.021 0.833,-1.853 1.854,-1.853 1.021,0 1.854,0.832 1.854,1.853 C 1.854,-0.83 1.021,0 0,0 m 0,-4.766 c -1.606,0 -2.913,1.307 -2.913,2.912 0,1.608 1.307,2.915 2.913,2.915 1.606,0 2.913,-1.307 2.913,-2.915 0,-1.605 -1.307,-2.912 -2.913,-2.912"
               style="fill:#303030;fill-opacity:1;fill-rule:nonzero;stroke:none"
               id="path909"
               inkscape:connector-curvature="0" />
          </g>
        </g>
      </g>
    </g>
  </g>
</svg>
