<?xml version="1.0" encoding="UTF-8" standalone="no"?>
<!-- Created with Inkscape (http://www.inkscape.org/) -->

<svg
   xmlns:dc="http://purl.org/dc/elements/1.1/"
   xmlns:cc="http://creativecommons.org/ns#"
   xmlns:rdf="http://www.w3.org/1999/02/22-rdf-syntax-ns#"
   xmlns:svg="http://www.w3.org/2000/svg"
   xmlns="http://www.w3.org/2000/svg"
   xmlns:sodipodi="http://sodipodi.sourceforge.net/DTD/sodipodi-0.dtd"
   xmlns:inkscape="http://www.inkscape.org/namespaces/inkscape"
   width="26mm"
   height="21mm"
   viewBox="0 0 26 21"
   version="1.1"
   id="svg8"
   inkscape:version="0.92.4 (f8dce91, 2019-08-02)"
   sodipodi:docname="drawing-12.svg">
  <defs
     id="defs2" />
  <sodipodi:namedview
     id="base"
     pagecolor="#ffffff"
     bordercolor="#666666"
     borderopacity="1.0"
     inkscape:pageopacity="0.0"
     inkscape:pageshadow="2"
     inkscape:zoom="3.959798"
     inkscape:cx="53.803231"
     inkscape:cy="-8.5003863"
     inkscape:document-units="mm"
     inkscape:current-layer="layer1"
     showgrid="false"
     inkscape:window-width="1850"
     inkscape:window-height="1016"
     inkscape:window-x="70"
     inkscape:window-y="27"
     inkscape:window-maximized="1" />
  <metadata
     id="metadata5">
    <rdf:RDF>
      <cc:Work
         rdf:about="">
        <dc:format>image/svg+xml</dc:format>
        <dc:type
           rdf:resource="http://purl.org/dc/dcmitype/StillImage" />
        <dc:title></dc:title>
      </cc:Work>
    </rdf:RDF>
  </metadata>
  <g
     inkscape:label="Layer 1"
     inkscape:groupmode="layer"
     id="layer1"
     transform="translate(0,-276)">
    <g
       transform="matrix(0.35277777,0,0,-0.35277777,-149.19812,807.85362)"
       style="opacity:0.9"
       id="g3920">
      <g
         id="g2003"
         transform="translate(427.7593,1473.293)">
        <path
           inkscape:connector-curvature="0"
           id="path2001"
           style="fill:#F4C533;fill-opacity:1;fill-rule:nonzero;stroke:none"
           d="m 0,0 c -0.473,0 -0.931,0.255 -1.17,0.701 -1.735,3.248 -2.653,6.909 -2.653,10.588 0,12.419 10.103,22.524 22.522,22.524 4.553,0 8.945,-1.36 12.699,-3.93 0.604,-0.413 0.758,-1.237 0.345,-1.841 -0.414,-0.605 -1.238,-0.758 -1.842,-0.345 -3.311,2.267 -7.185,3.465 -11.202,3.465 -10.958,0 -19.872,-8.915 -19.872,-19.873 0,-3.244 0.809,-6.474 2.34,-9.339 C 1.512,1.305 1.269,0.502 0.623,0.157 0.425,0.051 0.211,0.001 0,0" />
      </g>
      <g
         id="g2007"
         transform="translate(471.5659,1456.2842)">
        <path
           inkscape:connector-curvature="0"
           id="path2005"
           style="fill:#4DBCFF;fill-opacity:1;fill-rule:nonzero;stroke:none"
           d="m 0,0 h -15.899 c -0.732,0 -1.325,0.593 -1.325,1.325 0,0.732 0.593,1.324 1.325,1.324 H 0 C 0.731,2.649 1.324,2.057 1.324,1.325 1.324,0.593 0.731,0 0,0" />
      </g>
      <g
         id="g2011"
         transform="translate(459.3755,1448.5996)">
        <path
           inkscape:connector-curvature="0"
           id="path2009"
           style="fill:#4DBCFF;fill-opacity:1;fill-rule:nonzero;stroke:none"
           d="m 0,0 c -0.216,0 -0.436,0.053 -0.639,0.166 -0.64,0.353 -0.873,1.159 -0.52,1.8 L 7.32,17.334 c 0.353,0.641 1.159,0.875 1.8,0.52 0.641,-0.354 0.873,-1.16 0.521,-1.8 L 1.161,0.686 C 0.92,0.248 0.467,0 0,0" />
      </g>
      <g
         id="g2015"
         transform="translate(449.3071,1456.2842)">
        <path
           inkscape:connector-curvature="0"
           id="path2013"
           style="fill:#E1EBF2;fill-opacity:1;fill-rule:nonzero;stroke:none"
           d="m 0,0 h -2.649 c -8.039,0 -14.579,6.507 -14.579,14.506 0,7.998 6.537,14.505 14.57,14.505 1.637,0 3.223,-0.262 4.734,-0.782 2.607,9.772 11.506,16.708 21.739,16.708 12.401,0 22.49,-10.087 22.49,-22.487 0,-10.508 -7.499,-19.736 -17.831,-21.945 -0.711,-0.152 -1.419,0.303 -1.573,1.018 -0.153,0.715 0.303,1.419 1.019,1.573 9.117,1.949 15.735,10.089 15.735,19.354 0,10.939 -8.9,19.837 -19.84,19.837 C 14.313,42.287 6.114,35.507 4.32,26.165 4.243,25.763 3.983,25.418 3.617,25.233 3.252,25.047 2.82,25.043 2.45,25.219 c -1.594,0.758 -3.312,1.142 -5.108,1.142 -6.572,0 -11.919,-5.318 -11.919,-11.855 0,-6.538 5.35,-11.857 11.928,-11.857 L 0,2.649 C 0.732,2.649 1.325,2.057 1.325,1.325 1.325,0.593 0.732,0 0,0" />
      </g>
      <g
         id="g2019"
         transform="translate(470.5767,1457.6094)">
        <path
           inkscape:connector-curvature="0"
           id="path2017"
           style="fill:#4DBCFF;fill-opacity:1;fill-rule:nonzero;stroke:none"
           d="M 0,0 Z" />
      </g>
      <g
         id="g2023"
         transform="translate(467.8569,1448.5996)">
        <path
           inkscape:connector-curvature="0"
           id="path2021"
           style="fill:#4DBCFF;fill-opacity:1;fill-rule:nonzero;stroke:none"
           d="m 0,0 c -0.467,0 -0.92,0.247 -1.161,0.686 l -8.48,15.368 c -0.352,0.64 -0.12,1.446 0.521,1.8 0.641,0.355 1.446,0.121 1.8,-0.52 L 1.159,1.966 C 1.512,1.325 1.279,0.519 0.639,0.166 0.436,0.053 0.216,0 0,0" />
      </g>
    </g>
  </g>
</svg>
