<?xml version="1.0" encoding="UTF-8" standalone="no"?>
<!-- Created with Inkscape (http://www.inkscape.org/) -->

<svg
   xmlns:dc="http://purl.org/dc/elements/1.1/"
   xmlns:cc="http://creativecommons.org/ns#"
   xmlns:rdf="http://www.w3.org/1999/02/22-rdf-syntax-ns#"
   xmlns:svg="http://www.w3.org/2000/svg"
   xmlns="http://www.w3.org/2000/svg"
   xmlns:sodipodi="http://sodipodi.sourceforge.net/DTD/sodipodi-0.dtd"
   xmlns:inkscape="http://www.inkscape.org/namespaces/inkscape"
   width="26mm"
   height="25mm"
   viewBox="0 0 26 25"
   version="1.1"
   id="svg8"
   inkscape:version="0.92.4 (f8dce91, 2019-08-02)"
   sodipodi:docname="drawing-9.svg">
  <defs
     id="defs2" />
  <sodipodi:namedview
     id="base"
     pagecolor="#ffffff"
     bordercolor="#666666"
     borderopacity="1.0"
     inkscape:pageopacity="0.0"
     inkscape:pageshadow="2"
     inkscape:zoom="3.959798"
     inkscape:cx="53.803231"
     inkscape:cy="-8.5003863"
     inkscape:document-units="mm"
     inkscape:current-layer="layer1"
     showgrid="false"
     inkscape:window-width="1850"
     inkscape:window-height="1016"
     inkscape:window-x="70"
     inkscape:window-y="27"
     inkscape:window-maximized="1" />
  <metadata
     id="metadata5">
    <rdf:RDF>
      <cc:Work
         rdf:about="">
        <dc:format>image/svg+xml</dc:format>
        <dc:type
           rdf:resource="http://purl.org/dc/dcmitype/StillImage" />
        <dc:title></dc:title>
      </cc:Work>
    </rdf:RDF>
  </metadata>
  <g
     inkscape:label="Layer 1"
     inkscape:groupmode="layer"
     id="layer1"
     transform="translate(0,-272)">
    <g
       transform="matrix(0.35277777,0,0,-0.35277777,-170.61307,917.64517)"
       style="opacity:0.9"
       id="g3584">
      <g
         id="g2291"
         transform="translate(505.3179,1774.4434)">
        <path
           inkscape:connector-curvature="0"
           id="path2289"
           style="fill:#C2CDE7;fill-opacity:1;fill-rule:nonzero;stroke:none"
           d="m 0,0 c -0.074,0 -0.148,0.006 -0.223,0.019 -6.961,1.189 -12.011,7.167 -12.011,14.213 0,7.954 6.5,14.424 14.49,14.424 1.631,0 3.213,-0.261 4.715,-0.778 2.592,9.717 11.447,16.613 21.633,16.613 12.347,0 22.394,-10.03 22.394,-22.358 0,-7.756 -3.934,-14.836 -10.523,-18.942 -0.618,-0.382 -1.43,-0.196 -1.815,0.422 -0.385,0.617 -0.195,1.43 0.422,1.815 5.813,3.621 9.281,9.865 9.281,16.705 0,10.875 -8.863,19.723 -19.759,19.723 -9.459,0 -17.618,-6.742 -19.403,-16.03 C 9.125,25.426 8.867,25.083 8.504,24.899 8.141,24.715 7.711,24.709 7.342,24.885 5.758,25.639 4.047,26.021 2.256,26.021 -4.281,26.021 -9.6,20.732 -9.6,14.232 -9.6,8.475 -5.471,3.588 0.221,2.615 0.937,2.493 1.42,1.812 1.297,1.096 1.187,0.453 0.631,0 0,0" />
      </g>
      <g
         id="g2295"
         transform="translate(509.6812,1771.1992)">
        <path
           inkscape:connector-curvature="0"
           id="path2293"
           style="fill:#74A0D9;fill-opacity:1;fill-rule:nonzero;stroke:none"
           d="M 0,0 C -0.631,0.364 -0.846,1.17 -0.482,1.8 L 2.943,7.732 C 3.307,8.363 4.111,8.578 4.742,8.215 5.373,7.851 5.59,7.045 5.225,6.415 L 1.799,0.482 C 1.436,-0.148 0.631,-0.363 0,0" />
      </g>
      <g
         id="g2299"
         transform="translate(518.1128,1771.1992)">
        <path
           inkscape:connector-curvature="0"
           id="path2297"
           style="fill:#74A0D9;fill-opacity:1;fill-rule:nonzero;stroke:none"
           d="M 0,0 C -0.631,0.364 -0.846,1.17 -0.482,1.8 L 2.943,7.732 C 3.307,8.363 4.111,8.578 4.742,8.215 5.373,7.851 5.588,7.045 5.225,6.415 L 1.799,0.482 C 1.436,-0.148 0.631,-0.363 0,0" />
      </g>
      <g
         id="g2303"
         transform="translate(526.5444,1771.1992)">
        <path
           inkscape:connector-curvature="0"
           id="path2301"
           style="fill:#74A0D9;fill-opacity:1;fill-rule:nonzero;stroke:none"
           d="m 0,0 c -0.631,0.364 -0.846,1.17 -0.482,1.8 l 3.423,5.932 c 0.366,0.631 1.17,0.846 1.801,0.483 0.631,-0.364 0.846,-1.17 0.483,-1.8 L 1.799,0.482 C 1.436,-0.148 0.629,-0.363 0,0" />
      </g>
      <g
         id="g2307"
         transform="translate(534.9761,1771.1992)">
        <path
           inkscape:connector-curvature="0"
           id="path2305"
           style="fill:#74A0D9;fill-opacity:1;fill-rule:nonzero;stroke:none"
           d="m 0,0 c -0.631,0.364 -0.848,1.17 -0.484,1.8 l 3.425,5.932 c 0.366,0.631 1.17,0.846 1.801,0.483 0.629,-0.364 0.846,-1.17 0.481,-1.8 L 1.799,0.482 C 1.436,-0.148 0.629,-0.363 0,0" />
      </g>
      <g
         id="g2311"
         transform="translate(508.6284,1760.1338)">
        <path
           inkscape:connector-curvature="0"
           id="path2309"
           style="fill:#74A0D9;fill-opacity:1;fill-rule:nonzero;stroke:none"
           d="M 0,0 C -0.631,0.364 -0.846,1.169 -0.482,1.8 L 2.941,7.731 C 3.307,8.362 4.111,8.577 4.742,8.214 5.371,7.851 5.588,7.045 5.223,6.415 L 1.799,0.481 C 1.436,-0.148 0.629,-0.364 0,0" />
      </g>
      <g
         id="g2315"
         transform="translate(517.0581,1760.1338)">
        <path
           inkscape:connector-curvature="0"
           id="path2313"
           style="fill:#74A0D9;fill-opacity:1;fill-rule:nonzero;stroke:none"
           d="M 0,0 C -0.631,0.364 -0.846,1.169 -0.482,1.8 L 2.943,7.731 C 3.309,8.362 4.113,8.577 4.744,8.214 5.373,7.851 5.59,7.045 5.225,6.415 L 1.801,0.481 C 1.437,-0.148 0.631,-0.364 0,0" />
      </g>
      <g
         id="g2319"
         transform="translate(525.4897,1760.1338)">
        <path
           inkscape:connector-curvature="0"
           id="path2317"
           style="fill:#74A0D9;fill-opacity:1;fill-rule:nonzero;stroke:none"
           d="M 0,0 C -0.629,0.364 -0.846,1.169 -0.482,1.8 L 2.943,7.731 C 3.307,8.362 4.113,8.577 4.742,8.214 5.373,7.851 5.59,7.045 5.225,6.415 L 1.799,0.481 C 1.436,-0.148 0.631,-0.364 0,0" />
      </g>
      <g
         id="g2323"
         transform="translate(489.4351,1794.2246)">
        <path
           inkscape:connector-curvature="0"
           id="path2321"
           style="fill:#F4C533;fill-opacity:1;fill-rule:nonzero;stroke:none"
           d="m 0,0 c -0.428,0 -0.848,0.207 -1.102,0.592 -2.416,3.661 -3.693,7.92 -3.693,12.316 0,12.349 10.047,22.395 22.395,22.395 6.298,0 12.343,-2.677 16.582,-7.345 0.488,-0.538 0.449,-1.372 -0.09,-1.86 -0.539,-0.491 -1.371,-0.45 -1.86,0.089 -3.742,4.12 -9.074,6.481 -14.632,6.481 -10.895,0 -19.76,-8.863 -19.76,-19.76 0,-3.879 1.127,-7.636 3.258,-10.865 C 1.498,1.436 1.332,0.618 0.725,0.218 0.502,0.07 0.25,0 0,0" />
      </g>
    </g>
  </g>
</svg>
