<?xml version="1.0" encoding="UTF-8" standalone="no"?>
<!-- Created with Inkscape (http://www.inkscape.org/) -->

<svg
   xmlns:dc="http://purl.org/dc/elements/1.1/"
   xmlns:cc="http://creativecommons.org/ns#"
   xmlns:rdf="http://www.w3.org/1999/02/22-rdf-syntax-ns#"
   xmlns:svg="http://www.w3.org/2000/svg"
   xmlns="http://www.w3.org/2000/svg"
   xmlns:sodipodi="http://sodipodi.sourceforge.net/DTD/sodipodi-0.dtd"
   xmlns:inkscape="http://www.inkscape.org/namespaces/inkscape"
   width="26mm"
   height="15mm"
   viewBox="0 0 26 15"
   version="1.1"
   id="svg8"
   inkscape:version="0.92.4 (f8dce91, 2019-08-02)"
   sodipodi:docname="drawing-15.svg">
  <defs
     id="defs2" />
  <sodipodi:namedview
     id="base"
     pagecolor="#ffffff"
     bordercolor="#666666"
     borderopacity="1.0"
     inkscape:pageopacity="0.0"
     inkscape:pageshadow="2"
     inkscape:zoom="3.959798"
     inkscape:cx="53.803231"
     inkscape:cy="-8.5003863"
     inkscape:document-units="mm"
     inkscape:current-layer="layer1"
     showgrid="false"
     inkscape:window-width="1850"
     inkscape:window-height="1016"
     inkscape:window-x="70"
     inkscape:window-y="27"
     inkscape:window-maximized="1" />
  <metadata
     id="metadata5">
    <rdf:RDF>
      <cc:Work
         rdf:about="">
        <dc:format>image/svg+xml</dc:format>
        <dc:type
           rdf:resource="http://purl.org/dc/dcmitype/StillImage" />
        <dc:title></dc:title>
      </cc:Work>
    </rdf:RDF>
  </metadata>
  <g
     inkscape:label="Layer 1"
     inkscape:groupmode="layer"
     id="layer1"
     transform="translate(0,-282)">
    <g
       transform="matrix(0.35277777,0,0,-0.35277777,-85.594613,707.86346)"
       style="opacity:0.9"
       id="g4039">
      <g
         id="g1743"
         transform="translate(260.0044,1179.9219)">
        <path
           inkscape:connector-curvature="0"
           id="path1741"
           style="fill:#F4C533;fill-opacity:1;fill-rule:nonzero;stroke:none"
           d="m 0,0 c -0.204,1.605 -0.316,2.432 -0.316,3.633 0,11.062 8.999,20.116 20.06,20.116 11.062,0 20.061,-9.082 20.061,-20.144 0,-1.202 -0.113,-2 -0.316,-3.605 h 2.717 c 0.179,1.605 0.273,2.436 0.273,3.633 0,12.537 -10.199,22.791 -22.735,22.791 -12.536,0 -22.735,-10.282 -22.735,-22.819 0,-1.197 0.095,-2 0.274,-3.605 z" />
      </g>
      <g
         id="g1747"
         transform="translate(313.9858,1179.3867)">
        <path
           inkscape:connector-curvature="0"
           id="path1745"
           style="fill:#E3F2FF;fill-opacity:1;fill-rule:nonzero;stroke:none"
           d="m 0,0 h -69.009 c -0.738,0 -1.338,0.6 -1.338,1.337 0,0.739 0.6,1.338 1.338,1.338 H 0 C 0.738,2.675 1.337,2.076 1.337,1.337 1.337,0.6 0.738,0 0,0" />
      </g>
      <g
         id="g1751"
         transform="translate(303.2866,1172.4326)">
        <path
           inkscape:connector-curvature="0"
           id="path1749"
           style="fill:#E3F2FF;fill-opacity:1;fill-rule:nonzero;stroke:none"
           d="m 0,0 h -47.611 c -0.739,0 -1.337,0.599 -1.337,1.338 0,0.737 0.598,1.337 1.337,1.337 H 0 c 0.738,0 1.338,-0.6 1.338,-1.337 C 1.338,0.599 0.738,0 0,0" />
      </g>
      <g
         id="g1755"
         transform="translate(292.5874,1165.4785)">
        <path
           inkscape:connector-curvature="0"
           id="path1753"
           style="fill:#E3F2FF;fill-opacity:1;fill-rule:nonzero;stroke:none"
           d="m 0,0 h -26.213 c -0.738,0 -1.337,0.599 -1.337,1.337 0,0.739 0.599,1.338 1.337,1.338 H 0 C 0.739,2.675 1.337,2.076 1.337,1.337 1.337,0.599 0.739,0 0,0" />
      </g>
    </g>
  </g>
</svg>
