<?xml version="1.0" encoding="UTF-8" standalone="no"?>
<!-- Created with Inkscape (http://www.inkscape.org/) -->

<svg
   xmlns:dc="http://purl.org/dc/elements/1.1/"
   xmlns:cc="http://creativecommons.org/ns#"
   xmlns:rdf="http://www.w3.org/1999/02/22-rdf-syntax-ns#"
   xmlns:svg="http://www.w3.org/2000/svg"
   xmlns="http://www.w3.org/2000/svg"
   xmlns:sodipodi="http://sodipodi.sourceforge.net/DTD/sodipodi-0.dtd"
   xmlns:inkscape="http://www.inkscape.org/namespaces/inkscape"
   width="26mm"
   height="23mm"
   viewBox="0 0 26 23"
   version="1.1"
   id="svg8"
   inkscape:version="0.92.4 (f8dce91, 2019-08-02)"
   sodipodi:docname="drawing-21.svg">
  <defs
     id="defs2">
    <clipPath
       clipPathUnits="userSpaceOnUse"
       id="clipPath1363">
      <path
         d="m 436.22,594.375 h 34.271 V 549.561 H 436.22 Z"
         id="path1361"
         inkscape:connector-curvature="0" />
    </clipPath>
  </defs>
  <sodipodi:namedview
     id="base"
     pagecolor="#ffffff"
     bordercolor="#666666"
     borderopacity="1.0"
     inkscape:pageopacity="0.0"
     inkscape:pageshadow="2"
     inkscape:zoom="3.959798"
     inkscape:cx="53.803231"
     inkscape:cy="21.80419"
     inkscape:document-units="mm"
     inkscape:current-layer="layer1"
     showgrid="false"
     inkscape:window-width="1850"
     inkscape:window-height="1016"
     inkscape:window-x="70"
     inkscape:window-y="27"
     inkscape:window-maximized="1" />
  <metadata
     id="metadata5">
    <rdf:RDF>
      <cc:Work
         rdf:about="">
        <dc:format>image/svg+xml</dc:format>
        <dc:type
           rdf:resource="http://purl.org/dc/dcmitype/StillImage" />
        <dc:title></dc:title>
      </cc:Work>
    </rdf:RDF>
  </metadata>
  <g
     inkscape:label="Layer 1"
     inkscape:groupmode="layer"
     id="layer1"
     transform="translate(0,-274)">
    <g
       transform="matrix(0.35277777,0,0,-0.35277777,-149.3558,520.50523)"
       style="opacity:0.9"
       id="g4322">
      <g
         transform="translate(429.1128,662.5244)"
         id="g1427">
        <path
           d="m 0,0 c -0.433,0 -0.856,0.212 -1.11,0.602 -2.989,4.602 -4.186,10.134 -3.369,15.577 0.062,0.419 0.323,0.783 0.7,0.977 0.376,0.196 0.823,0.198 1.203,0.006 4.597,-2.322 10.133,-1.433 13.775,2.208 3.642,3.643 4.53,9.179 2.208,13.776 -0.191,0.377 -0.189,0.826 0.006,1.202 0.194,0.377 0.559,0.638 0.978,0.701 7.031,1.054 14.224,-1.311 19.243,-6.33 0.144,-0.144 0.284,-0.293 0.423,-0.442 l 0.089,-0.096 c 0.5,-0.535 0.472,-1.37 -0.06,-1.869 -0.534,-0.5 -1.371,-0.471 -1.869,0.061 l -0.094,0.102 c -0.118,0.125 -0.234,0.25 -0.356,0.373 -4.022,4.021 -9.626,6.113 -15.263,5.767 1.85,-5.23 0.569,-11.109 -3.436,-15.114 C 9.063,13.495 3.183,12.216 -2.047,14.066 -2.312,9.83 -1.216,5.618 1.107,2.042 1.505,1.43 1.331,0.611 0.719,0.213 0.496,0.068 0.247,0 0,0"
           style="fill:#F4C533;fill-opacity:1;fill-rule:nonzero;stroke:none"
           id="path1425"
           inkscape:connector-curvature="0" />
      </g>
      <g
         transform="translate(472.064,642.1611)"
         id="g1431">
        <path
           d="m 0,0 h -15.864 c -0.731,0 -1.323,0.592 -1.323,1.322 0,0.73 0.592,1.322 1.323,1.322 H 0 C 0.73,2.644 1.322,2.052 1.322,1.322 1.322,0.592 0.73,0 0,0"
           style="fill:#4DBCFF;fill-opacity:1;fill-rule:nonzero;stroke:none"
           id="path1429"
           inkscape:connector-curvature="0" />
      </g>
      <g
         transform="translate(459.9009,634.4932)"
         id="g1435">
        <path
           d="M 0,0 C -0.217,0 -0.436,0.053 -0.638,0.165 -1.277,0.518 -1.51,1.321 -1.157,1.961 L 7.304,17.297 C 7.656,17.936 8.46,18.17 9.1,17.814 9.739,17.462 9.972,16.658 9.619,16.019 L 1.158,0.684 C 0.917,0.247 0.466,0 0,0"
           style="fill:#4DBCFF;fill-opacity:1;fill-rule:nonzero;stroke:none"
           id="path1433"
           inkscape:connector-curvature="0" />
      </g>
      <g
         transform="translate(449.854,642.1611)"
         id="g1439">
        <path
           d="m 0,0 h -2.645 c -8.02,0 -14.545,6.493 -14.545,14.475 0,7.98 6.521,14.473 14.538,14.473 1.633,0 3.215,-0.261 4.723,-0.78 2.601,9.751 11.482,16.672 21.693,16.672 12.374,0 22.441,-10.067 22.441,-22.439 0,-10.484 -7.483,-19.694 -17.793,-21.897 -0.711,-0.153 -1.417,0.302 -1.569,1.016 -0.153,0.713 0.303,1.417 1.016,1.569 9.098,1.945 15.702,10.067 15.702,19.312 0,10.915 -8.881,19.794 -19.797,19.794 C 14.281,42.195 6.101,35.43 4.311,26.108 4.233,25.707 3.975,25.363 3.609,25.179 3.243,24.993 2.813,24.988 2.444,25.164 c -1.59,0.756 -3.304,1.141 -5.096,1.141 -6.559,0 -11.895,-5.308 -11.895,-11.83 0,-6.524 5.34,-11.831 11.902,-11.831 H 0 C 0.73,2.644 1.322,2.052 1.322,1.322 1.322,0.592 0.73,0 0,0"
           style="fill:#C2CDE7;fill-opacity:1;fill-rule:nonzero;stroke:none"
           id="path1437"
           inkscape:connector-curvature="0" />
      </g>
      <g
         transform="translate(468.3638,634.4932)"
         id="g1443">
        <path
           d="M 0,0 C -0.466,0 -0.918,0.246 -1.159,0.684 L -9.62,16.019 c -0.353,0.639 -0.12,1.443 0.519,1.795 0.639,0.356 1.443,0.122 1.796,-0.517 L 1.156,1.961 C 1.509,1.321 1.276,0.518 0.637,0.165 0.435,0.053 0.216,0 0,0"
           style="fill:#4DBCFF;fill-opacity:1;fill-rule:nonzero;stroke:none"
           id="path1441"
           inkscape:connector-curvature="0" />
      </g>
    </g>
  </g>
</svg>
