<?xml version="1.0" encoding="UTF-8" standalone="no"?>
<!-- Created with Inkscape (http://www.inkscape.org/) -->

<svg
   xmlns:dc="http://purl.org/dc/elements/1.1/"
   xmlns:cc="http://creativecommons.org/ns#"
   xmlns:rdf="http://www.w3.org/1999/02/22-rdf-syntax-ns#"
   xmlns:svg="http://www.w3.org/2000/svg"
   xmlns="http://www.w3.org/2000/svg"
   xmlns:sodipodi="http://sodipodi.sourceforge.net/DTD/sodipodi-0.dtd"
   xmlns:inkscape="http://www.inkscape.org/namespaces/inkscape"
   width="26mm"
   height="25mm"
   viewBox="0 0 26 25"
   version="1.1"
   id="svg8"
   inkscape:version="0.92.4 (f8dce91, 2019-08-02)"
   sodipodi:docname="drawing-17.svg">
  <defs
     id="defs2" />
  <sodipodi:namedview
     id="base"
     pagecolor="#ffffff"
     bordercolor="#666666"
     borderopacity="1.0"
     inkscape:pageopacity="0.0"
     inkscape:pageshadow="2"
     inkscape:zoom="3.959798"
     inkscape:cx="53.803231"
     inkscape:cy="-8.5003863"
     inkscape:document-units="mm"
     inkscape:current-layer="layer1"
     showgrid="false"
     inkscape:window-width="1850"
     inkscape:window-height="1016"
     inkscape:window-x="70"
     inkscape:window-y="27"
     inkscape:window-maximized="1" />
  <metadata
     id="metadata5">
    <rdf:RDF>
      <cc:Work
         rdf:about="">
        <dc:format>image/svg+xml</dc:format>
        <dc:type
           rdf:resource="http://purl.org/dc/dcmitype/StillImage" />
        <dc:title></dc:title>
      </cc:Work>
    </rdf:RDF>
  </metadata>
  <g
     inkscape:label="Layer 1"
     inkscape:groupmode="layer"
     id="layer1"
     transform="translate(0,-272)">
    <g
       transform="matrix(0.35277777,0,0,-0.35277777,-149.19311,633.48114)"
       style="opacity:0.9"
       id="g4121">
      <g
         id="g1643"
         transform="translate(445.1431,969.1875)">
        <path
           inkscape:connector-curvature="0"
           id="path1641"
           style="fill:#C2CDE7;fill-opacity:1;fill-rule:nonzero;stroke:none"
           d="m 0,0 c -0.051,0 -0.104,0.003 -0.156,0.009 -7.29,0.863 -12.788,7.036 -12.788,14.359 0,7.974 6.518,14.46 14.529,14.46 1.636,0 3.221,-0.261 4.727,-0.779 2.6,9.742 11.478,16.656 21.689,16.656 12.381,0 22.454,-10.056 22.454,-22.417 0,-8.515 -4.732,-16.178 -12.351,-20.001 -0.652,-0.327 -1.447,-0.063 -1.773,0.589 -0.327,0.651 -0.064,1.445 0.588,1.772 6.72,3.373 10.894,10.131 10.894,17.64 0,10.904 -8.887,19.775 -19.812,19.775 C 18.519,42.063 10.338,35.305 8.55,25.991 8.473,25.59 8.214,25.247 7.849,25.062 7.484,24.877 7.054,24.872 6.685,25.048 c -1.588,0.756 -3.304,1.139 -5.1,1.139 -6.555,0 -11.888,-5.302 -11.888,-11.819 0,-5.984 4.496,-11.03 10.457,-11.736 C 0.879,2.547 1.396,1.89 1.311,1.165 1.231,0.494 0.661,0 0,0" />
      </g>
      <g
         id="g1647"
         transform="translate(451.2183,965.3965)">
        <path
           inkscape:connector-curvature="0"
           id="path1645"
           style="fill:#74A0D9;fill-opacity:1;fill-rule:nonzero;stroke:none"
           d="m 0,0 c -0.729,0 -1.32,0.591 -1.32,1.32 v 6.868 c 0,0.73 0.591,1.322 1.32,1.322 0.73,0 1.321,-0.592 1.321,-1.322 V 1.32 C 1.321,0.591 0.73,0 0,0" />
      </g>
      <g
         id="g1651"
         transform="translate(459.6724,965.3965)">
        <path
           inkscape:connector-curvature="0"
           id="path1649"
           style="fill:#74A0D9;fill-opacity:1;fill-rule:nonzero;stroke:none"
           d="m 0,0 c -0.729,0 -1.321,0.591 -1.321,1.32 v 6.868 c 0,0.73 0.592,1.322 1.321,1.322 0.729,0 1.32,-0.592 1.32,-1.322 V 1.32 C 1.32,0.591 0.729,0 0,0" />
      </g>
      <g
         id="g1655"
         transform="translate(468.1255,965.3965)">
        <path
           inkscape:connector-curvature="0"
           id="path1653"
           style="fill:#74A0D9;fill-opacity:1;fill-rule:nonzero;stroke:none"
           d="m 0,0 c -0.729,0 -1.321,0.591 -1.321,1.32 v 6.868 c 0,0.73 0.592,1.322 1.321,1.322 0.729,0 1.32,-0.592 1.32,-1.322 V 1.32 C 1.32,0.591 0.729,0 0,0" />
      </g>
      <g
         id="g1659"
         transform="translate(476.5786,965.3965)">
        <path
           inkscape:connector-curvature="0"
           id="path1657"
           style="fill:#74A0D9;fill-opacity:1;fill-rule:nonzero;stroke:none"
           d="m 0,0 c -0.729,0 -1.321,0.591 -1.321,1.32 v 6.868 c 0,0.73 0.592,1.322 1.321,1.322 0.729,0 1.32,-0.592 1.32,-1.322 V 1.32 C 1.32,0.591 0.729,0 0,0" />
      </g>
      <g
         id="g1663"
         transform="translate(455.4458,954.3018)">
        <path
           inkscape:connector-curvature="0"
           id="path1661"
           style="fill:#74A0D9;fill-opacity:1;fill-rule:nonzero;stroke:none"
           d="m 0,0 c -0.73,0 -1.321,0.591 -1.321,1.32 v 6.868 c 0,0.73 0.591,1.322 1.321,1.322 0.729,0 1.32,-0.592 1.32,-1.322 V 1.32 C 1.32,0.591 0.729,0 0,0" />
      </g>
      <g
         id="g1667"
         transform="translate(463.8989,954.3018)">
        <path
           inkscape:connector-curvature="0"
           id="path1665"
           style="fill:#74A0D9;fill-opacity:1;fill-rule:nonzero;stroke:none"
           d="m 0,0 c -0.729,0 -1.321,0.591 -1.321,1.32 v 6.868 c 0,0.73 0.592,1.322 1.321,1.322 0.729,0 1.32,-0.592 1.32,-1.322 V 1.32 C 1.32,0.591 0.729,0 0,0" />
      </g>
      <g
         id="g1671"
         transform="translate(472.3521,954.3018)">
        <path
           inkscape:connector-curvature="0"
           id="path1669"
           style="fill:#74A0D9;fill-opacity:1;fill-rule:nonzero;stroke:none"
           d="m 0,0 c -0.729,0 -1.321,0.591 -1.321,1.32 v 6.868 c 0,0.73 0.592,1.322 1.321,1.322 0.729,0 1.32,-0.592 1.32,-1.322 V 1.32 C 1.32,0.591 0.729,0 0,0" />
      </g>
      <g
         id="g1675"
         transform="translate(428.647,988.9111)">
        <path
           inkscape:connector-curvature="0"
           id="path1673"
           style="fill:#F4C533;fill-opacity:1;fill-rule:nonzero;stroke:none"
           d="m 0,0 c -0.432,0 -0.855,0.211 -1.108,0.602 -2.987,4.597 -4.183,10.124 -3.367,15.561 0.063,0.419 0.324,0.783 0.7,0.978 0.377,0.194 0.823,0.196 1.202,0.005 4.593,-2.32 10.123,-1.433 13.762,2.207 3.639,3.638 4.526,9.169 2.207,13.761 -0.192,0.379 -0.19,0.826 0.005,1.202 0.195,0.376 0.558,0.637 0.977,0.701 7.024,1.052 14.211,-1.311 19.226,-6.326 0.144,-0.143 0.283,-0.292 0.421,-0.44 l 0.091,-0.097 c 0.498,-0.533 0.471,-1.369 -0.061,-1.867 -0.534,-0.499 -1.369,-0.471 -1.867,0.062 l -0.094,0.1 c -0.117,0.126 -0.235,0.251 -0.357,0.373 -4.016,4.018 -9.616,6.107 -15.248,5.763 1.848,-5.226 0.57,-11.1 -3.432,-15.101 C 9.056,13.483 3.181,12.205 -2.044,14.053 -2.309,9.821 -1.214,5.612 1.107,2.04 1.504,1.429 1.33,0.61 0.719,0.213 0.497,0.068 0.247,0 0,0" />
      </g>
    </g>
  </g>
</svg>
