<?xml version="1.0" encoding="UTF-8" standalone="no"?>
<!-- Created with Inkscape (http://www.inkscape.org/) -->

<svg
   xmlns:dc="http://purl.org/dc/elements/1.1/"
   xmlns:cc="http://creativecommons.org/ns#"
   xmlns:rdf="http://www.w3.org/1999/02/22-rdf-syntax-ns#"
   xmlns:svg="http://www.w3.org/2000/svg"
   xmlns="http://www.w3.org/2000/svg"
   xmlns:sodipodi="http://sodipodi.sourceforge.net/DTD/sodipodi-0.dtd"
   xmlns:inkscape="http://www.inkscape.org/namespaces/inkscape"
   width="26mm"
   height="25mm"
   viewBox="0 0 26 25"
   version="1.1"
   id="svg8"
   inkscape:version="0.92.4 (f8dce91, 2019-08-02)"
   sodipodi:docname="drawing-8.svg">
  <defs
     id="defs2" />
  <sodipodi:namedview
     id="base"
     pagecolor="#ffffff"
     bordercolor="#666666"
     borderopacity="1.0"
     inkscape:pageopacity="0.0"
     inkscape:pageshadow="2"
     inkscape:zoom="3.959798"
     inkscape:cx="53.803231"
     inkscape:cy="-8.5003863"
     inkscape:document-units="mm"
     inkscape:current-layer="layer1"
     showgrid="false"
     inkscape:window-width="1850"
     inkscape:window-height="1016"
     inkscape:window-x="70"
     inkscape:window-y="27"
     inkscape:window-maximized="1" />
  <metadata
     id="metadata5">
    <rdf:RDF>
      <cc:Work
         rdf:about="">
        <dc:format>image/svg+xml</dc:format>
        <dc:type
           rdf:resource="http://purl.org/dc/dcmitype/StillImage" />
        <dc:title></dc:title>
      </cc:Work>
    </rdf:RDF>
  </metadata>
  <g
     inkscape:label="Layer 1"
     inkscape:groupmode="layer"
     id="layer1"
     transform="translate(0,-272)">
    <g
       transform="matrix(0.35277777,0,0,-0.35277777,-170.51725,956.18722)"
       style="opacity:0.9"
       id="g3436">
      <g
         id="g2419"
         transform="translate(505.7212,1883.8281)">
        <path
           inkscape:connector-curvature="0"
           id="path2417"
           style="fill:#C2CDE7;fill-opacity:1;fill-rule:nonzero;stroke:none"
           d="M 0,0 C -0.051,-0.001 -0.104,0.002 -0.156,0.009 -7.428,0.87 -12.91,7.026 -12.91,14.33 c 0,7.953 6.5,14.423 14.49,14.423 1.633,0 3.213,-0.261 4.715,-0.777 2.594,9.716 11.449,16.613 21.633,16.613 12.349,0 22.396,-10.03 22.396,-22.36 0,-8.492 -4.72,-16.135 -12.32,-19.948 -0.65,-0.326 -1.441,-0.063 -1.768,0.587 -0.326,0.651 -0.064,1.443 0.586,1.769 6.703,3.362 10.867,10.103 10.867,17.592 0,10.876 -8.865,19.725 -19.761,19.725 -9.459,0 -17.617,-6.742 -19.401,-16.03 C 8.451,25.523 8.191,25.181 7.828,24.997 7.465,24.812 7.035,24.807 6.668,24.982 5.082,25.736 3.371,26.118 1.58,26.118 -4.957,26.118 -10.275,20.83 -10.275,14.33 -10.275,8.361 -5.793,3.329 0.154,2.625 0.877,2.54 1.393,1.885 1.307,1.162 1.227,0.492 0.658,0 0,0" />
      </g>
      <g
         id="g2423"
         transform="translate(511.7798,1880.0469)">
        <path
           inkscape:connector-curvature="0"
           id="path2421"
           style="fill:#74A0D9;fill-opacity:1;fill-rule:nonzero;stroke:none"
           d="m 0,0 c -0.727,0 -1.316,0.589 -1.316,1.317 v 6.85 c 0,0.728 0.589,1.317 1.316,1.317 0.729,0 1.318,-0.589 1.318,-1.317 V 1.317 C 1.318,0.589 0.729,0 0,0" />
      </g>
      <g
         id="g2427"
         transform="translate(520.2114,1880.0469)">
        <path
           inkscape:connector-curvature="0"
           id="path2425"
           style="fill:#74A0D9   ;fill-opacity:1;fill-rule:nonzero;stroke:none"
           d="m 0,0 c -0.727,0 -1.316,0.589 -1.316,1.317 v 6.85 c 0,0.728 0.589,1.317 1.316,1.317 0.729,0 1.318,-0.589 1.318,-1.317 V 1.317 C 1.318,0.589 0.729,0 0,0" />
      </g>
      <g
         id="g2431"
         transform="translate(528.6431,1880.0469)">
        <path
           inkscape:connector-curvature="0"
           id="path2429"
           style="fill:#74A0D9;fill-opacity:1;fill-rule:nonzero;stroke:none"
           d="m 0,0 c -0.729,0 -1.316,0.589 -1.316,1.317 v 6.85 c 0,0.728 0.587,1.317 1.316,1.317 0.729,0 1.318,-0.589 1.318,-1.317 V 1.317 C 1.318,0.589 0.729,0 0,0" />
      </g>
      <g
         id="g2435"
         transform="translate(537.0747,1880.0469)">
        <path
           inkscape:connector-curvature="0"
           id="path2433"
           style="fill:#74A0D9;fill-opacity:1;fill-rule:nonzero;stroke:none"
           d="m 0,0 c -0.729,0 -1.318,0.589 -1.318,1.317 v 6.85 c 0,0.728 0.589,1.317 1.318,1.317 0.727,0 1.316,-0.589 1.316,-1.317 V 1.317 C 1.316,0.589 0.727,0 0,0" />
      </g>
      <g
         id="g2439"
         transform="translate(515.9966,1868.9805)">
        <path
           inkscape:connector-curvature="0"
           id="path2437"
           style="fill:#74A0D9;fill-opacity:1;fill-rule:nonzero;stroke:none"
           d="m 0,0 c -0.729,0 -1.318,0.59 -1.318,1.317 v 6.851 c 0,0.728 0.589,1.317 1.318,1.317 0.727,0 1.316,-0.589 1.316,-1.317 V 1.317 C 1.316,0.59 0.727,0 0,0" />
      </g>
      <g
         id="g2443"
         transform="translate(524.4282,1868.9805)">
        <path
           inkscape:connector-curvature="0"
           id="path2441"
           style="fill:#74A0D9;fill-opacity:1;fill-rule:nonzero;stroke:none"
           d="m 0,0 c -0.729,0 -1.318,0.59 -1.318,1.317 v 6.851 c 0,0.728 0.589,1.317 1.318,1.317 0.727,0 1.316,-0.589 1.316,-1.317 V 1.317 C 1.316,0.59 0.727,0 0,0" />
      </g>
      <g
         id="g2447"
         transform="translate(532.8579,1868.9805)">
        <path
           inkscape:connector-curvature="0"
           id="path2445"
           style="fill:#74A0D9;fill-opacity:1;fill-rule:nonzero;stroke:none"
           d="m 0,0 c -0.727,0 -1.316,0.59 -1.316,1.317 v 6.851 c 0,0.728 0.589,1.317 1.316,1.317 0.729,0 1.318,-0.589 1.318,-1.317 V 1.317 C 1.318,0.59 0.729,0 0,0" />
      </g>
      <g
         id="g2451"
         transform="translate(489.1626,1903.7061)">
        <path
           inkscape:connector-curvature="0"
           id="path2449"
           style="fill:#F4C533;fill-opacity:1;fill-rule:nonzero;stroke:none"
           d="m 0,0 c -0.428,0 -0.846,0.208 -1.1,0.592 -2.418,3.662 -3.695,7.921 -3.695,12.317 0,12.349 10.047,22.395 22.397,22.395 6.298,0 12.341,-2.677 16.58,-7.345 0.49,-0.539 0.449,-1.372 -0.09,-1.861 -0.537,-0.49 -1.371,-0.449 -1.86,0.089 -3.742,4.12 -9.074,6.483 -14.63,6.483 C 6.705,32.67 -2.16,23.805 -2.16,12.909 -2.16,9.03 -1.033,5.273 1.1,2.043 1.5,1.437 1.332,0.619 0.725,0.219 0.502,0.071 0.25,0 0,0" />
      </g>
    </g>
  </g>
</svg>
