<?xml version="1.0" encoding="UTF-8" standalone="no"?>
<!-- Created with Inkscape (http://www.inkscape.org/) -->

<svg
   xmlns:dc="http://purl.org/dc/elements/1.1/"
   xmlns:cc="http://creativecommons.org/ns#"
   xmlns:rdf="http://www.w3.org/1999/02/22-rdf-syntax-ns#"
   xmlns:svg="http://www.w3.org/2000/svg"
   xmlns="http://www.w3.org/2000/svg"
   xmlns:sodipodi="http://sodipodi.sourceforge.net/DTD/sodipodi-0.dtd"
   xmlns:inkscape="http://www.inkscape.org/namespaces/inkscape"
   width="26mm"
   height="25mm"
   viewBox="0 0 26 25"
   version="1.1"
   id="svg8"
   inkscape:version="0.92.4 (f8dce91, 2019-08-02)"
   sodipodi:docname="drawing-18.svg">
  <defs
     id="defs2" />
  <sodipodi:namedview
     id="base"
     pagecolor="#ffffff"
     bordercolor="#666666"
     borderopacity="1.0"
     inkscape:pageopacity="0.0"
     inkscape:pageshadow="2"
     inkscape:zoom="3.959798"
     inkscape:cx="53.803231"
     inkscape:cy="21.80419"
     inkscape:document-units="mm"
     inkscape:current-layer="layer1"
     showgrid="false"
     inkscape:window-width="1850"
     inkscape:window-height="1016"
     inkscape:window-x="70"
     inkscape:window-y="27"
     inkscape:window-maximized="1" />
  <metadata
     id="metadata5">
    <rdf:RDF>
      <cc:Work
         rdf:about="">
        <dc:format>image/svg+xml</dc:format>
        <dc:type
           rdf:resource="http://purl.org/dc/dcmitype/StillImage" />
        <dc:title></dc:title>
      </cc:Work>
    </rdf:RDF>
  </metadata>
  <g
     inkscape:label="Layer 1"
     inkscape:groupmode="layer"
     id="layer1"
     transform="translate(0,-272)">
    <g
       transform="matrix(0.35277777,0,0,-0.35277777,-149.40166,595.29551)"
       style="opacity:0.9"
       id="g4222">
      <g
         id="g1515"
         transform="translate(447.4233,886.0645)">
        <path
           inkscape:connector-curvature="0"
           id="path1513"
           style="fill:#C2CDE7;fill-opacity:1;fill-rule:nonzero;stroke:none"
           d="m 0,0 c -6.54,0 -11.861,-5.29 -11.861,-11.794 0,-6.503 5.321,-11.794 11.861,-11.794 h 26.359 c 10.902,0 19.771,8.837 19.771,19.697 0,10.882 -8.869,19.734 -19.771,19.734 C 16.897,15.843 8.733,9.098 6.95,-0.195 6.873,-0.596 6.614,-0.937 6.251,-1.122 5.887,-1.307 5.458,-1.312 5.09,-1.137 3.504,-0.382 1.792,0 0,0 M 26.359,-26.224 H 0 c -7.994,0 -14.498,6.474 -14.498,14.43 0,7.957 6.504,14.431 14.498,14.431 1.633,0 3.214,-0.262 4.718,-0.779 2.593,9.722 11.453,16.621 21.641,16.621 12.356,0 22.407,-10.035 22.407,-22.37 0,-12.314 -10.051,-22.333 -22.407,-22.333" />
      </g>
      <g
         id="g1519"
         transform="translate(453.6987,855.0957)">
        <path
           inkscape:connector-curvature="0"
           id="path1517"
           style="fill:#B6DCFE;fill-opacity:1;fill-rule:nonzero;stroke:none"
           d="m 0,0 c 0,-0.873 -0.708,-1.581 -1.582,-1.581 -0.873,0 -1.581,0.708 -1.581,1.581 0,0.874 0.708,1.582 1.581,1.582 C -0.708,1.582 0,0.874 0,0" />
      </g>
      <g
         id="g1523"
         transform="translate(462.1343,855.0957)">
        <path
           inkscape:connector-curvature="0"
           id="path1521"
           style="fill:#B6DCFE;fill-opacity:1;fill-rule:nonzero;stroke:none"
           d="m 0,0 c 0,-0.873 -0.708,-1.581 -1.582,-1.581 -0.874,0 -1.581,0.708 -1.581,1.581 0,0.874 0.707,1.582 1.581,1.582 C -0.708,1.582 0,0.874 0,0" />
      </g>
      <g
         id="g1527"
         transform="translate(470.5688,855.0957)">
        <path
           inkscape:connector-curvature="0"
           id="path1525"
           style="fill:#B6DCFE;fill-opacity:1;fill-rule:nonzero;stroke:none"
           d="m 0,0 c 0,-0.873 -0.708,-1.581 -1.581,-1.581 -0.874,0 -1.582,0.708 -1.582,1.581 0,0.874 0.708,1.582 1.582,1.582 C -0.708,1.582 0,0.874 0,0" />
      </g>
      <g
         id="g1531"
         transform="translate(479.0044,855.0957)">
        <path
           inkscape:connector-curvature="0"
           id="path1529"
           style="fill:#B6DCFE;fill-opacity:1;fill-rule:nonzero;stroke:none"
           d="m 0,0 c 0,-0.873 -0.708,-1.581 -1.582,-1.581 -0.873,0 -1.581,0.708 -1.581,1.581 0,0.874 0.708,1.582 1.581,1.582 C -0.708,1.582 0,0.874 0,0" />
      </g>
      <g
         id="g1535"
         transform="translate(457.9165,848.7695)">
        <path
           inkscape:connector-curvature="0"
           id="path1533"
           style="fill:#B6DCFE;fill-opacity:1;fill-rule:nonzero;stroke:none"
           d="m 0,0 c 0,-0.873 -0.708,-1.581 -1.582,-1.581 -0.873,0 -1.581,0.708 -1.581,1.581 0,0.874 0.708,1.582 1.581,1.582 C -0.708,1.582 0,0.874 0,0" />
      </g>
      <g
         id="g1539"
         transform="translate(466.3511,848.7695)">
        <path
           inkscape:connector-curvature="0"
           id="path1537"
           style="fill:#B6DCFE;fill-opacity:1;fill-rule:nonzero;stroke:none"
           d="m 0,0 c 0,-0.873 -0.708,-1.581 -1.581,-1.581 -0.874,0 -1.582,0.708 -1.582,1.581 0,0.874 0.708,1.582 1.582,1.582 C -0.708,1.582 0,0.874 0,0" />
      </g>
      <g
         id="g1543"
         transform="translate(474.7866,848.7695)">
        <path
           inkscape:connector-curvature="0"
           id="path1541"
           style="fill:#B6DCFE;fill-opacity:1;fill-rule:nonzero;stroke:none"
           d="m 0,0 c 0,-0.873 -0.708,-1.581 -1.582,-1.581 -0.873,0 -1.581,0.708 -1.581,1.581 0,0.874 0.708,1.582 1.581,1.582 C -0.708,1.582 0,0.874 0,0" />
      </g>
      <g
         id="g1547"
         transform="translate(429.228,879.6152)">
        <path
           inkscape:connector-curvature="0"
           id="path1545"
           style="fill:#F4C533;fill-opacity:1;fill-rule:nonzero;stroke:none"
           d="m 0,0 c -0.431,0 -0.854,0.211 -1.106,0.6 -2.98,4.587 -4.173,10.103 -3.36,15.529 0.063,0.418 0.323,0.78 0.698,0.975 0.376,0.194 0.822,0.196 1.2,0.005 4.584,-2.314 10.101,-1.429 13.733,2.202 3.631,3.63 4.516,9.15 2.201,13.732 -0.19,0.378 -0.188,0.824 0.006,1.199 0.194,0.376 0.557,0.637 0.975,0.699 7.01,1.05 14.18,-1.306 19.184,-6.31 0.144,-0.144 0.283,-0.292 0.421,-0.441 l 0.091,-0.096 c 0.497,-0.532 0.47,-1.365 -0.062,-1.864 -0.532,-0.498 -1.366,-0.468 -1.863,0.062 l -0.094,0.101 c -0.117,0.125 -0.233,0.25 -0.355,0.373 -4.008,4.008 -9.598,6.094 -15.216,5.749 C 18.297,27.301 17.021,21.439 13.028,17.447 9.036,13.453 3.174,12.178 -2.04,14.022 -2.304,9.8 -1.212,5.601 1.104,2.035 1.501,1.426 1.327,0.608 0.717,0.212 0.495,0.068 0.246,0 0,0" />
      </g>
    </g>
  </g>
</svg>
