<?xml version="1.0" encoding="UTF-8" standalone="no"?>
<!-- Created with Inkscape (http://www.inkscape.org/) -->

<svg
   xmlns:dc="http://purl.org/dc/elements/1.1/"
   xmlns:cc="http://creativecommons.org/ns#"
   xmlns:rdf="http://www.w3.org/1999/02/22-rdf-syntax-ns#"
   xmlns:svg="http://www.w3.org/2000/svg"
   xmlns="http://www.w3.org/2000/svg"
   xmlns:sodipodi="http://sodipodi.sourceforge.net/DTD/sodipodi-0.dtd"
   xmlns:inkscape="http://www.inkscape.org/namespaces/inkscape"
   width="26mm"
   height="25mm"
   viewBox="0 0 26 25"
   version="1.1"
   id="svg8"
   inkscape:version="0.92.4 (f8dce91, 2019-08-02)"
   sodipodi:docname="drawing-10.svg">
  <defs
     id="defs2" />
  <sodipodi:namedview
     id="base"
     pagecolor="#ffffff"
     bordercolor="#666666"
     borderopacity="1.0"
     inkscape:pageopacity="0.0"
     inkscape:pageshadow="2"
     inkscape:zoom="3.959798"
     inkscape:cx="53.803231"
     inkscape:cy="-8.5003863"
     inkscape:document-units="mm"
     inkscape:current-layer="layer1"
     showgrid="false"
     inkscape:window-width="1850"
     inkscape:window-height="1016"
     inkscape:window-x="70"
     inkscape:window-y="27"
     inkscape:window-maximized="1" />
  <metadata
     id="metadata5">
    <rdf:RDF>
      <cc:Work
         rdf:about="">
        <dc:format>image/svg+xml</dc:format>
        <dc:type
           rdf:resource="http://purl.org/dc/dcmitype/StillImage" />
        <dc:title></dc:title>
      </cc:Work>
    </rdf:RDF>
  </metadata>
  <g
     inkscape:label="Layer 1"
     inkscape:groupmode="layer"
     id="layer1"
     transform="translate(0,-272)">
    <g
       transform="matrix(0.35277777,0,0,-0.35277777,-170.59576,879.13768)"
       style="opacity:0.9"
       id="g3767">
      <g
         transform="translate(507.397,1690.7617)"
         id="g2163">
        <path
           d="m 0,0 c -6.555,0 -11.888,-5.303 -11.888,-11.819 0,-6.518 5.333,-11.82 11.888,-11.82 h 26.416 c 10.925,0 19.813,8.855 19.813,19.74 0,10.904 -8.888,19.775 -19.813,19.775 C 16.934,15.876 8.753,9.117 6.965,-0.196 6.888,-0.598 6.629,-0.94 6.264,-1.125 5.899,-1.311 5.47,-1.315 5.101,-1.14 3.512,-0.384 1.796,0 0,0 M 26.416,-26.28 H 0 c -8.012,0 -14.529,6.486 -14.529,14.461 0,7.973 6.517,14.461 14.529,14.461 1.636,0 3.221,-0.262 4.728,-0.781 2.598,9.743 11.477,16.657 21.688,16.657 12.382,0 22.454,-10.057 22.454,-22.417 0,-12.341 -10.072,-22.381 -22.454,-22.381"
           style="fill:#C2CDE7;fill-opacity:1;fill-rule:nonzero;stroke:none"
           id="path2161"
           inkscape:connector-curvature="0" />
      </g>
      <g
         transform="translate(489.3979,1684.5049)"
         id="g2167">
        <path
           d="m 0,0 c -0.429,0 -0.849,0.208 -1.104,0.594 -2.422,3.671 -3.703,7.94 -3.703,12.348 0,12.381 10.073,22.454 22.454,22.454 6.315,0 12.374,-2.684 16.624,-7.365 0.491,-0.54 0.451,-1.375 -0.089,-1.866 -0.54,-0.49 -1.376,-0.449 -1.866,0.09 -3.751,4.131 -9.097,6.5 -14.669,6.5 -10.924,0 -19.812,-8.889 -19.812,-19.813 0,-3.888 1.129,-7.656 3.267,-10.893 C 1.503,1.439 1.336,0.62 0.727,0.219 0.503,0.071 0.25,0 0,0"
           style="fill:#F4C533;fill-opacity:1;fill-rule:nonzero;stroke:none"
           id="path2165"
           inkscape:connector-curvature="0" />
      </g>
      <g
         transform="translate(513.9243,1659.1982)"
         id="g2171">
        <path
           d="m 0,0 c 0,-0.876 -0.71,-1.585 -1.585,-1.585 -0.876,0 -1.585,0.709 -1.585,1.585 0,0.875 0.709,1.585 1.585,1.585 C -0.71,1.585 0,0.875 0,0"
           style="fill:#B6DCFE;fill-opacity:1;fill-rule:nonzero;stroke:none"
           id="path2169"
           inkscape:connector-curvature="0" />
      </g>
      <g
         transform="translate(522.3774,1659.1982)"
         id="g2175">
        <path
           d="m 0,0 c 0,-0.876 -0.71,-1.585 -1.585,-1.585 -0.876,0 -1.585,0.709 -1.585,1.585 0,0.875 0.709,1.585 1.585,1.585 C -0.71,1.585 0,0.875 0,0"
           style="fill:#B6DCFE;fill-opacity:1;fill-rule:nonzero;stroke:none"
           id="path2173"
           inkscape:connector-curvature="0" />
      </g>
      <g
         transform="translate(530.8306,1659.1982)"
         id="g2179">
        <path
           d="m 0,0 c 0,-0.876 -0.709,-1.585 -1.585,-1.585 -0.876,0 -1.585,0.709 -1.585,1.585 0,0.875 0.709,1.585 1.585,1.585 C -0.709,1.585 0,0.875 0,0"
           style="fill:#B6DCFE;fill-opacity:1;fill-rule:nonzero;stroke:none"
           id="path2177"
           inkscape:connector-curvature="0" />
      </g>
      <g
         transform="translate(539.2837,1659.1982)"
         id="g2183">
        <path
           d="m 0,0 c 0,-0.876 -0.709,-1.585 -1.585,-1.585 -0.875,0 -1.585,0.709 -1.585,1.585 0,0.875 0.71,1.585 1.585,1.585 C -0.709,1.585 0,0.875 0,0"
           style="fill:#B6DCFE;fill-opacity:1;fill-rule:nonzero;stroke:none"
           id="path2181"
           inkscape:connector-curvature="0" />
      </g>
      <g
         transform="translate(518.1509,1652.8584)"
         id="g2187">
        <path
           d="m 0,0 c 0,-0.876 -0.71,-1.585 -1.585,-1.585 -0.876,0 -1.585,0.709 -1.585,1.585 0,0.875 0.709,1.585 1.585,1.585 C -0.71,1.585 0,0.875 0,0"
           style="fill:#B6DCFE;fill-opacity:1;fill-rule:nonzero;stroke:none"
           id="path2185"
           inkscape:connector-curvature="0" />
      </g>
      <g
         transform="translate(526.604,1652.8584)"
         id="g2191">
        <path
           d="m 0,0 c 0,-0.876 -0.709,-1.585 -1.585,-1.585 -0.876,0 -1.585,0.709 -1.585,1.585 0,0.875 0.709,1.585 1.585,1.585 C -0.709,1.585 0,0.875 0,0"
           style="fill:#B6DCFE;fill-opacity:1;fill-rule:nonzero;stroke:none"
           id="path2189"
           inkscape:connector-curvature="0" />
      </g>
      <g
         transform="translate(535.0571,1652.8584)"
         id="g2195">
        <path
           d="m 0,0 c 0,-0.876 -0.709,-1.585 -1.585,-1.585 -0.875,0 -1.585,0.709 -1.585,1.585 0,0.875 0.71,1.585 1.585,1.585 C -0.709,1.585 0,0.875 0,0"
           style="fill:#B6DCFE;fill-opacity:1;fill-rule:nonzero;stroke:none"
           id="path2193"
           inkscape:connector-curvature="0" />
      </g>
    </g>
  </g>
</svg>
