<?xml version="1.0" encoding="UTF-8" standalone="no"?>
<!-- Created with Inkscape (http://www.inkscape.org/) -->

<svg
   xmlns:dc="http://purl.org/dc/elements/1.1/"
   xmlns:cc="http://creativecommons.org/ns#"
   xmlns:rdf="http://www.w3.org/1999/02/22-rdf-syntax-ns#"
   xmlns:svg="http://www.w3.org/2000/svg"
   xmlns="http://www.w3.org/2000/svg"
   xmlns:sodipodi="http://sodipodi.sourceforge.net/DTD/sodipodi-0.dtd"
   xmlns:inkscape="http://www.inkscape.org/namespaces/inkscape"
   width="26mm"
   height="18mm"
   viewBox="0 0 26 18"
   version="1.1"
   id="svg8"
   inkscape:version="0.92.4 (f8dce91, 2019-08-02)"
   sodipodi:docname="drawing-13.svg">
  <defs
     id="defs2" />
  <sodipodi:namedview
     id="base"
     pagecolor="#ffffff"
     bordercolor="#666666"
     borderopacity="1.0"
     inkscape:pageopacity="0.0"
     inkscape:pageshadow="2"
     inkscape:zoom="3.959798"
     inkscape:cx="53.803231"
     inkscape:cy="-8.5003863"
     inkscape:document-units="mm"
     inkscape:current-layer="layer1"
     showgrid="false"
     inkscape:window-width="1850"
     inkscape:window-height="1016"
     inkscape:window-x="70"
     inkscape:window-y="27"
     inkscape:window-maximized="1" />
  <metadata
     id="metadata5">
    <rdf:RDF>
      <cc:Work
         rdf:about="">
        <dc:format>image/svg+xml</dc:format>
        <dc:type
           rdf:resource="http://purl.org/dc/dcmitype/StillImage" />
        <dc:title></dc:title>
      </cc:Work>
    </rdf:RDF>
  </metadata>
  <g
     inkscape:label="Layer 1"
     inkscape:groupmode="layer"
     id="layer1"
     transform="translate(0,-279)">
    <g
       transform="matrix(0.35277777,0,0,-0.35277777,-63.679547,770.90244)"
       style="opacity:0.9"
       id="g3953">
      <g
         id="g1867"
         transform="translate(185.1138,1360.5605)">
        <path
           inkscape:connector-curvature="0"
           id="path1865"
           style="fill:#F4C533;fill-opacity:1;fill-rule:nonzero;stroke:none"
           d="m 0,0 c -0.482,0 -0.946,0.264 -1.179,0.723 -1.601,3.162 -2.413,6.566 -2.413,10.121 0,12.377 10.068,22.443 22.443,22.443 2.917,0 5.758,-0.553 8.445,-1.646 0.676,-0.276 1,-1.045 0.725,-1.721 -0.274,-0.674 -1.044,-1 -1.72,-0.725 -2.369,0.963 -4.876,1.453 -7.45,1.453 -10.919,0 -19.803,-8.884 -19.803,-19.804 0,-3.137 0.716,-6.139 2.129,-8.928 C 1.506,1.266 1.246,0.471 0.596,0.143 0.404,0.045 0.201,0 0,0" />
      </g>
      <g
         id="g1871"
         transform="translate(221.248,1359.5781)">
        <path
           inkscape:connector-curvature="0"
           id="path1869"
           style="fill:#B6DCFE;fill-opacity:1;fill-rule:nonzero;stroke:none"
           d="m 0,0 h -29.572 c -0.73,0 -1.321,0.59 -1.321,1.32 0,0.729 0.591,1.321 1.321,1.321 H 0 c 2.185,0 3.961,1.806 3.961,4.025 0,2.221 -1.776,4.027 -3.961,4.027 -0.729,0 -1.32,0.592 -1.32,1.321 0,0.728 0.591,1.32 1.32,1.32 3.64,0 6.602,-2.99 6.602,-6.668 C 6.602,2.99 3.64,0 0,0" />
      </g>
      <g
         id="g1875"
         transform="translate(221.248,1354.2969)">
        <path
           inkscape:connector-curvature="0"
           id="path1873"
           style="fill:#B6DCFE;fill-opacity:1;fill-rule:nonzero;stroke:none"
           d="m 0,0 h -27.46 c -0.729,0 -1.32,0.592 -1.32,1.32 0,0.729 0.591,1.321 1.32,1.321 H 0 C 0.729,2.641 1.32,2.049 1.32,1.32 1.32,0.592 0.729,0 0,0" />
      </g>
      <g
         id="g1879"
         transform="translate(230.7539,1349.0156)">
        <path
           inkscape:connector-curvature="0"
           id="path1877"
           style="fill:#C2CDE7;fill-opacity:1;fill-rule:nonzero;stroke:none"
           d="m 0,0 h -1.056 c -0.73,0 -1.32,0.592 -1.32,1.32 0,0.731 0.59,1.321 1.32,1.321 H 0 c 10.919,0 19.803,8.851 19.803,19.73 0,10.9 -8.884,19.768 -19.803,19.768 -9.479,0 -17.655,-6.758 -19.443,-16.067 -0.077,-0.4 -0.335,-0.744 -0.7,-0.927 -0.365,-0.186 -0.794,-0.19 -1.164,-0.016 -1.587,0.756 -3.302,1.141 -5.097,1.141 -5.319,0 -10.03,-3.62 -11.456,-8.799 -0.194,-0.703 -0.921,-1.117 -1.623,-0.922 -0.704,0.193 -1.117,0.92 -0.923,1.623 1.741,6.322 7.499,10.736 14.002,10.736 1.635,0 3.218,-0.26 4.725,-0.779 2.598,9.738 11.472,16.648 21.679,16.648 12.375,0 22.443,-10.05 22.443,-22.406 C 22.443,10.037 12.375,0 0,0" />
      </g>
      <g
         id="g1883"
         transform="translate(221.248,1343.8672)">
        <path
           inkscape:connector-curvature="0"
           id="path1881"
           style="fill:#B6DCFE;fill-opacity:1;fill-rule:nonzero;stroke:none"
           d="m 0,0 c -0.729,0 -1.32,0.592 -1.32,1.32 0,0.729 0.591,1.321 1.32,1.321 0.753,0 1.32,0.539 1.32,1.254 0,0.714 -0.567,1.253 -1.32,1.253 h -19.539 c -0.729,0 -1.32,0.592 -1.32,1.321 0,0.73 0.591,1.32 1.32,1.32 H 0 C 2.221,7.789 3.961,6.078 3.961,3.895 3.961,1.711 2.221,0 0,0" />
      </g>
    </g>
  </g>
</svg>
