<?xml version="1.0" encoding="UTF-8" standalone="no"?>
<!-- Created with Inkscape (http://www.inkscape.org/) -->

<svg
   xmlns:dc="http://purl.org/dc/elements/1.1/"
   xmlns:cc="http://creativecommons.org/ns#"
   xmlns:rdf="http://www.w3.org/1999/02/22-rdf-syntax-ns#"
   xmlns:svg="http://www.w3.org/2000/svg"
   xmlns="http://www.w3.org/2000/svg"
   xmlns:sodipodi="http://sodipodi.sourceforge.net/DTD/sodipodi-0.dtd"
   xmlns:inkscape="http://www.inkscape.org/namespaces/inkscape"
   width="26mm"
   height="24mm"
   viewBox="0 0 26 24"
   version="1.1"
   id="svg8"
   inkscape:version="0.92.4 (f8dce91, 2019-08-02)"
   sodipodi:docname="drawing-11.svg">
  <defs
     id="defs2" />
  <sodipodi:namedview
     id="base"
     pagecolor="#ffffff"
     bordercolor="#666666"
     borderopacity="1.0"
     inkscape:pageopacity="0.0"
     inkscape:pageshadow="2"
     inkscape:zoom="3.959798"
     inkscape:cx="53.803231"
     inkscape:cy="-8.5003863"
     inkscape:document-units="mm"
     inkscape:current-layer="layer1"
     showgrid="false"
     inkscape:window-width="1850"
     inkscape:window-height="1016"
     inkscape:window-x="70"
     inkscape:window-y="27"
     inkscape:window-maximized="1" />
  <metadata
     id="metadata5">
    <rdf:RDF>
      <cc:Work
         rdf:about="">
        <dc:format>image/svg+xml</dc:format>
        <dc:type
           rdf:resource="http://purl.org/dc/dcmitype/StillImage" />
        <dc:title></dc:title>
      </cc:Work>
    </rdf:RDF>
  </metadata>
  <g
     inkscape:label="Layer 1"
     inkscape:groupmode="layer"
     id="layer1"
     transform="translate(0,-273)">
    <g
       transform="matrix(0.35277777,0,0,-0.35277777,-149.21863,841.94999)"
       style="opacity:0.9"
       id="g3891">
      <g
         id="g2059"
         transform="translate(427.8159,1577.377)">
        <path
           inkscape:connector-curvature="0"
           id="path2057"
           style="fill:#F4C533;fill-opacity:1;fill-rule:nonzero;stroke:none"
           d="m 0,0 c -0.473,0 -0.931,0.254 -1.169,0.701 -1.735,3.246 -2.653,6.906 -2.653,10.582 0,12.414 10.098,22.512 22.511,22.512 4.551,0 8.94,-1.357 12.693,-3.926 0.604,-0.414 0.758,-1.238 0.345,-1.842 -0.414,-0.603 -1.238,-0.757 -1.84,-0.343 -3.311,2.265 -7.183,3.462 -11.198,3.462 -10.952,0 -19.863,-8.91 -19.863,-19.863 0,-3.242 0.81,-6.469 2.341,-9.334 C 1.511,1.305 1.269,0.502 0.623,0.156 0.424,0.051 0.21,0 0,0" />
      </g>
      <g
         id="g2063"
         transform="translate(452.5308,1560.9063)">
        <path
           inkscape:connector-curvature="0"
           id="path2061"
           style="fill:#C2CDE7;fill-opacity:1;fill-rule:nonzero;stroke:none"
           d="m 0,0 h -5.826 c -8.033,0 -14.569,6.504 -14.569,14.498 0,7.996 6.534,14.498 14.565,14.498 1.639,0 3.225,-0.262 4.735,-0.781 2.606,9.767 11.504,16.699 21.738,16.699 12.404,0 22.497,-10.082 22.497,-22.475 0,-11.201 -8.369,-20.785 -19.468,-22.293 -0.723,-0.099 -1.392,0.411 -1.49,1.135 -0.099,0.725 0.409,1.391 1.133,1.49 9.792,1.331 17.176,9.786 17.176,19.668 0,10.932 -8.904,19.827 -19.848,19.827 C 11.14,42.266 2.941,35.488 1.148,26.152 1.071,25.75 0.812,25.406 0.446,25.221 0.08,25.035 -0.351,25.031 -0.721,25.207 c -1.592,0.758 -3.311,1.141 -5.109,1.141 -6.571,0 -11.916,-5.315 -11.916,-11.85 0,-6.533 5.348,-11.85 11.92,-11.85 L 0,2.648 C 0.731,2.648 1.324,2.057 1.324,1.324 1.324,0.594 0.731,0 0,0" />
      </g>
      <g
         id="g2067"
         transform="translate(458.8862,1546.3398)">
        <path
           inkscape:connector-curvature="0"
           id="path2065"
           style="fill:#F4C533;fill-opacity:1;fill-rule:nonzero;stroke:none"
           d="M 0,0 C -0.28,0 -0.562,0.09 -0.803,0.271 -1.384,0.717 -1.495,1.547 -1.052,2.129 L 8.447,14.566 H 0.001 c -0.509,0 -0.973,0.293 -1.193,0.752 -0.221,0.459 -0.16,1.002 0.159,1.401 l 5.297,6.621 c 0.457,0.57 1.29,0.664 1.861,0.207 0.571,-0.457 0.664,-1.291 0.207,-1.861 L 2.756,17.215 h 8.368 c 0.504,0 0.964,-0.285 1.188,-0.736 0.222,-0.452 0.17,-0.991 -0.135,-1.391 L 1.054,0.521 C 0.793,0.18 0.398,0 0,0" />
      </g>
    </g>
  </g>
</svg>
