<?xml version="1.0" encoding="UTF-8" standalone="no"?>
<!-- Created with Inkscape (http://www.inkscape.org/) -->

<svg
   xmlns:dc="http://purl.org/dc/elements/1.1/"
   xmlns:cc="http://creativecommons.org/ns#"
   xmlns:rdf="http://www.w3.org/1999/02/22-rdf-syntax-ns#"
   xmlns:svg="http://www.w3.org/2000/svg"
   xmlns="http://www.w3.org/2000/svg"
   xmlns:sodipodi="http://sodipodi.sourceforge.net/DTD/sodipodi-0.dtd"
   xmlns:inkscape="http://www.inkscape.org/namespaces/inkscape"
   width="23mm"
   height="17mm"
   viewBox="0 0 23 17"
   version="1.1"
   id="svg8"
   inkscape:version="0.92.4 (f8dce91, 2019-08-02)"
   sodipodi:docname="drawing-23.svg">
  <defs
     id="defs2">
    <clipPath
       clipPathUnits="userSpaceOnUse"
       id="clipPath1363">
      <path
         d="m 436.22,594.375 h 34.271 V 549.561 H 436.22 Z"
         id="path1361"
         inkscape:connector-curvature="0" />
    </clipPath>
    <clipPath
       clipPathUnits="userSpaceOnUse"
       id="clipPath1143">
      <path
         d="M 192.425,502.158 H 241.48 V 457.303 H 192.425 Z"
         id="path1141"
         inkscape:connector-curvature="0" />
    </clipPath>
    <clipPath
       clipPathUnits="userSpaceOnUse"
       id="clipPath995">
      <path
         d="m 185.521,327.85 h 63.075 v -43.006 h -63.075 z"
         id="path993"
         inkscape:connector-curvature="0" />
    </clipPath>
  </defs>
  <sodipodi:namedview
     id="base"
     pagecolor="#ffffff"
     bordercolor="#666666"
     borderopacity="1.0"
     inkscape:pageopacity="0.0"
     inkscape:pageshadow="2"
     inkscape:zoom="3.959798"
     inkscape:cx="53.803231"
     inkscape:cy="21.80419"
     inkscape:document-units="mm"
     inkscape:current-layer="layer1"
     showgrid="false"
     inkscape:window-width="1850"
     inkscape:window-height="1016"
     inkscape:window-x="70"
     inkscape:window-y="27"
     inkscape:window-maximized="1" />
  <metadata
     id="metadata5">
    <rdf:RDF>
      <cc:Work
         rdf:about="">
        <dc:format>image/svg+xml</dc:format>
        <dc:type
           rdf:resource="http://purl.org/dc/dcmitype/StillImage" />
        <dc:title></dc:title>
      </cc:Work>
    </rdf:RDF>
  </metadata>
  <g
     inkscape:label="Layer 1"
     inkscape:groupmode="layer"
     id="layer1"
     transform="translate(0,-280)">
    <g
       transform="matrix(0.35277777,0,0,-0.35277777,-65.073325,396.57236)"
       id="g1011">
      <g
         clip-path="url(#clipPath995)"
         id="g1009"
         style="opacity:0.9">
        <g
           transform="translate(238.5605,307.6367)"
           id="g999">
          <path
             d="m 0,0 h -34.404 c -0.792,0 -1.434,0.642 -1.434,1.434 0,0.792 0.642,1.433 1.434,1.433 H 0 c 3.952,0 7.168,3.247 7.168,7.239 0,3.993 -3.216,7.24 -7.168,7.24 -0.792,0 -1.434,0.641 -1.434,1.433 0,0.792 0.642,1.434 1.434,1.434 5.533,0 10.035,-4.533 10.035,-10.107 C 10.035,4.533 5.533,0 0,0"
             style="fill:#B6DCFE;fill-opacity:1;fill-rule:nonzero;stroke:none"
             id="path997"
             inkscape:connector-curvature="0" />
        </g>
        <g
           transform="translate(237.9873,301.9023)"
           id="g1003">
          <path
             d="m 0,0 h -51.033 c -0.792,0 -1.434,0.643 -1.434,1.434 0,0.792 0.642,1.433 1.434,1.433 H 0 C 0.792,2.867 1.434,2.226 1.434,1.434 1.434,0.643 0.792,0 0,0"
             style="fill:#B6DCFE;fill-opacity:1;fill-rule:nonzero;stroke:none"
             id="path1001"
             inkscape:connector-curvature="0" />
        </g>
        <g
           transform="translate(238.5605,284.8437)"
           id="g1007">
          <path
             d="m 0,0 c -0.792,0 -1.434,0.642 -1.434,1.434 0,0.792 0.642,1.433 1.434,1.433 2.412,0 4.301,1.858 4.301,4.229 0,2.372 -1.889,4.229 -4.301,4.229 h -41.858 c -0.792,0 -1.434,0.642 -1.434,1.434 0,0.791 0.642,1.432 1.434,1.432 H 0 c 3.952,0 7.168,-3.182 7.168,-7.095 C 7.168,3.184 3.952,0 0,0"
             style="fill:#B6DCFE;fill-opacity:1;fill-rule:nonzero;stroke:none"
             id="path1005"
             inkscape:connector-curvature="0" />
        </g>
      </g>
    </g>
  </g>
</svg>
