<?xml version="1.0" encoding="UTF-8" standalone="no"?>
<!-- Created with Inkscape (http://www.inkscape.org/) -->

<svg
   xmlns:dc="http://purl.org/dc/elements/1.1/"
   xmlns:cc="http://creativecommons.org/ns#"
   xmlns:rdf="http://www.w3.org/1999/02/22-rdf-syntax-ns#"
   xmlns:svg="http://www.w3.org/2000/svg"
   xmlns="http://www.w3.org/2000/svg"
   xmlns:sodipodi="http://sodipodi.sourceforge.net/DTD/sodipodi-0.dtd"
   xmlns:inkscape="http://www.inkscape.org/namespaces/inkscape"
   width="21mm"
   height="21mm"
   viewBox="0 0 21 21"
   version="1.1"
   id="svg8"
   inkscape:version="0.92.4 (f8dce91, 2019-08-02)"
   sodipodi:docname="drawing-14.svg">
  <defs
     id="defs2" />
  <sodipodi:namedview
     id="base"
     pagecolor="#ffffff"
     bordercolor="#666666"
     borderopacity="1.0"
     inkscape:pageopacity="0.0"
     inkscape:pageshadow="2"
     inkscape:zoom="3.959798"
     inkscape:cx="53.803231"
     inkscape:cy="-8.5003863"
     inkscape:document-units="mm"
     inkscape:current-layer="layer1"
     showgrid="false"
     inkscape:window-width="1850"
     inkscape:window-height="1016"
     inkscape:window-x="70"
     inkscape:window-y="27"
     inkscape:window-maximized="1" />
  <metadata
     id="metadata5">
    <rdf:RDF>
      <cc:Work
         rdf:about="">
        <dc:format>image/svg+xml</dc:format>
        <dc:type
           rdf:resource="http://purl.org/dc/dcmitype/StillImage" />
        <dc:title></dc:title>
      </cc:Work>
    </rdf:RDF>
  </metadata>
  <g
     inkscape:label="Layer 1"
     inkscape:groupmode="layer"
     id="layer1"
     transform="translate(0,-276)">
    <g
       transform="matrix(0.35277777,0,0,-0.35277777,-150.47553,736.19692)"
       style="opacity:0.9"
       id="g3992">
      <g
         id="g1811"
         transform="translate(456.3081,1294.3604)">
        <path
           inkscape:connector-curvature="0"
           id="path1809"
           style="fill:#F4C533;fill-opacity:1;fill-rule:nonzero;stroke:none"
           d="m 0,0 c -10.823,0 -19.63,-8.806 -19.63,-19.629 0,-10.823 8.807,-19.629 19.63,-19.629 10.823,0 19.63,8.806 19.63,19.629 C 19.63,-8.806 10.823,0 0,0 m 0,-41.875 c -12.267,0 -22.246,9.979 -22.246,22.246 0,12.267 9.979,22.246 22.246,22.246 12.267,0 22.247,-9.979 22.247,-22.246 0,-12.267 -9.98,-22.246 -22.247,-22.246" />
      </g>
      <g
         id="g1815"
         transform="translate(457.8784,1302.4736)">
        <path
           inkscape:connector-curvature="0"
           id="path1813"
           style="fill:#F4C533;fill-opacity:1;fill-rule:nonzero;stroke:none"
           d="m 0,0 c 0,-0.867 -0.702,-1.57 -1.57,-1.57 -0.868,0 -1.571,0.703 -1.571,1.57 0,0.868 0.703,1.57 1.571,1.57 C -0.702,1.57 0,0.868 0,0" />
      </g>
      <g
         id="g1819"
         transform="translate(457.8784,1246.9893)">
        <path
           inkscape:connector-curvature="0"
           id="path1817"
           style="fill:#F4C533;fill-opacity:1;fill-rule:nonzero;stroke:none"
           d="m 0,0 c 0,-0.869 -0.702,-1.57 -1.57,-1.57 -0.868,0 -1.571,0.701 -1.571,1.57 0,0.867 0.703,1.57 1.571,1.57 C -0.702,1.57 0,0.867 0,0" />
      </g>
      <g
         id="g1823"
         transform="translate(484.0513,1273.1611)">
        <path
           inkscape:connector-curvature="0"
           id="path1821"
           style="fill:#F4C533;fill-opacity:1;fill-rule:nonzero;stroke:none"
           d="m 0,0 c -0.869,0 -1.572,0.702 -1.572,1.57 0,0.868 0.703,1.571 1.572,1.571 0.867,0 1.57,-0.703 1.57,-1.571 C 1.57,0.702 0.867,0 0,0" />
      </g>
      <g
         id="g1827"
         transform="translate(428.5659,1273.1611)">
        <path
           inkscape:connector-curvature="0"
           id="path1825"
           style="fill:#F4C533;fill-opacity:1;fill-rule:nonzero;stroke:none"
           d="m 0,0 c -0.868,0 -1.57,0.702 -1.57,1.57 0,0.868 0.702,1.571 1.57,1.571 0.867,0 1.571,-0.703 1.571,-1.571 C 1.571,0.702 0.867,0 0,0" />
      </g>
      <g
         id="g1831"
         transform="translate(474.814,1254.0049)">
        <path
           inkscape:connector-curvature="0"
           id="path1829"
           style="fill:#F4C533;fill-opacity:1;fill-rule:nonzero;stroke:none"
           d="m 0,0 c -0.613,0.612 -0.613,1.606 0,2.221 0.614,0.612 1.608,0.612 2.221,0 C 2.835,1.606 2.835,0.612 2.221,0 1.608,-0.614 0.614,-0.614 0,0" />
      </g>
      <g
         id="g1835"
         transform="translate(435.5815,1293.2373)">
        <path
           inkscape:connector-curvature="0"
           id="path1833"
           style="fill:#F4C533;fill-opacity:1;fill-rule:nonzero;stroke:none"
           d="m 0,0 c -0.614,0.614 -0.614,1.608 0,2.221 0.612,0.614 1.606,0.614 2.22,0 C 2.833,1.608 2.833,0.614 2.22,0 1.606,-0.612 0.612,-0.612 0,0" />
      </g>
      <g
         id="g1839"
         transform="translate(435.5806,1256.2256)">
        <path
           inkscape:connector-curvature="0"
           id="path1837"
           style="fill:#F4C533;fill-opacity:1;fill-rule:nonzero;stroke:none"
           d="m 0,0 c 0.613,0.612 1.607,0.612 2.221,0 0.613,-0.613 0.613,-1.606 0,-2.221 C 1.607,-2.835 0.613,-2.835 0,-2.221 -0.613,-1.608 -0.613,-0.613 0,0" />
      </g>
      <g
         id="g1843"
         transform="translate(474.814,1295.459)">
        <path
           inkscape:connector-curvature="0"
           id="path1841"
           style="fill:#F4C533;fill-opacity:1;fill-rule:nonzero;stroke:none"
           d="m 0,0 c 0.614,0.613 1.606,0.613 2.22,0 0.613,-0.613 0.613,-1.607 0,-2.222 C 1.606,-2.834 0.614,-2.834 0,-2.222 -0.613,-1.607 -0.613,-0.613 0,0" />
      </g>
    </g>
  </g>
</svg>
