<?xml version="1.0" encoding="UTF-8" standalone="no"?>
<!-- Created with Inkscape (http://www.inkscape.org/) -->

<svg
   xmlns:dc="http://purl.org/dc/elements/1.1/"
   xmlns:cc="http://creativecommons.org/ns#"
   xmlns:rdf="http://www.w3.org/1999/02/22-rdf-syntax-ns#"
   xmlns:svg="http://www.w3.org/2000/svg"
   xmlns="http://www.w3.org/2000/svg"
   xmlns:sodipodi="http://sodipodi.sourceforge.net/DTD/sodipodi-0.dtd"
   xmlns:inkscape="http://www.inkscape.org/namespaces/inkscape"
   width="512"
   height="393.45001"
   viewBox="0 0 135.46667 104.10031"
   version="1.1"
   id="svg8"
   inkscape:version="0.92.4 (5da689c313, 2019-01-14)"
   sodipodi:docname="clouds-night.svg">
  <defs
     id="defs2" />
  <sodipodi:namedview
     id="base"
     pagecolor="#ffffff"
     bordercolor="#666666"
     borderopacity="1.0"
     inkscape:pageopacity="0.0"
     inkscape:pageshadow="2"
     inkscape:zoom="1.4"
     inkscape:cx="256.34258"
     inkscape:cy="194.19465"
     inkscape:document-units="mm"
     inkscape:current-layer="layer1"
     showgrid="false"
     inkscape:window-width="1850"
     inkscape:window-height="1016"
     inkscape:window-x="70"
     inkscape:window-y="27"
     inkscape:window-maximized="1"
     units="px" />
  <metadata
     id="metadata5">
    <rdf:RDF>
      <cc:Work
         rdf:about="">
        <dc:format>image/svg+xml</dc:format>
        <dc:type
           rdf:resource="http://purl.org/dc/dcmitype/StillImage" />
        <dc:title></dc:title>
      </cc:Work>
    </rdf:RDF>
  </metadata>
  <g
     inkscape:label="Layer 1"
     inkscape:groupmode="layer"
     id="layer1"
     transform="translate(0,-192.89969)">
    <g
       transform="matrix(1.8899919,0,0,-1.8899948,-686.70268,2309.1455)"
       style="opacity:0.9"
       id="g4068">
      <g
         id="g1707"
         transform="translate(386.1421,1090.9102)">
        <path
           inkscape:connector-curvature="0"
           id="path1705"
           style="fill:#e1ebf2;fill-opacity:1;fill-rule:nonzero;stroke:none"
           d="m 0,0 c -6.555,0 -11.888,-5.302 -11.888,-11.819 0,-6.517 5.333,-11.819 11.888,-11.819 h 26.416 c 10.925,0 19.813,8.855 19.813,19.74 0,10.904 -8.888,19.775 -19.813,19.775 C 16.934,15.877 8.753,9.118 6.965,-0.195 6.888,-0.597 6.629,-0.939 6.264,-1.124 5.899,-1.31 5.47,-1.314 5.1,-1.139 3.512,-0.383 1.796,0 0,0 M 26.416,-26.28 H 0 c -8.012,0 -14.529,6.487 -14.529,14.461 0,7.974 6.517,14.461 14.529,14.461 1.636,0 3.221,-0.262 4.728,-0.78 2.598,9.742 11.477,16.657 21.688,16.657 12.382,0 22.454,-10.057 22.454,-22.417 0,-12.341 -10.072,-22.382 -22.454,-22.382" />
      </g>
      <g
         id="g1711"
         transform="translate(368.062,1084.4463)">
        <path
           inkscape:connector-curvature="0"
           id="path1709"
           style="fill:#f4c533;fill-opacity:1;fill-rule:nonzero;stroke:none"
           d="m 0,0 c -0.433,0 -0.856,0.212 -1.109,0.602 -2.987,4.597 -4.182,10.125 -3.367,15.562 0.063,0.419 0.324,0.782 0.7,0.977 0.377,0.195 0.823,0.196 1.202,0.005 4.592,-2.318 10.123,-1.431 13.762,2.208 3.639,3.638 4.526,9.169 2.207,13.761 -0.192,0.378 -0.19,0.825 0.005,1.201 0.195,0.377 0.558,0.638 0.977,0.702 7.024,1.051 14.212,-1.311 19.226,-6.326 0.144,-0.143 0.283,-0.292 0.421,-0.44 l 0.091,-0.097 c 0.498,-0.533 0.471,-1.369 -0.061,-1.867 -0.533,-0.499 -1.369,-0.47 -1.867,0.062 l -0.094,0.1 c -0.117,0.126 -0.235,0.251 -0.357,0.373 -4.016,4.018 -9.619,6.11 -15.248,5.763 1.848,-5.227 0.57,-11.1 -3.432,-15.101 C 9.055,13.483 3.181,12.205 -2.046,14.054 -2.31,9.822 -1.215,5.613 1.106,2.041 1.503,1.43 1.329,0.611 0.718,0.214 0.496,0.069 0.246,0 0,0" />
      </g>
    </g>
  </g>
</svg>
