<?xml version="1.0" encoding="UTF-8" standalone="no"?>
<!-- Created with Inkscape (http://www.inkscape.org/) -->

<svg
   xmlns:dc="http://purl.org/dc/elements/1.1/"
   xmlns:cc="http://creativecommons.org/ns#"
   xmlns:rdf="http://www.w3.org/1999/02/22-rdf-syntax-ns#"
   xmlns:svg="http://www.w3.org/2000/svg"
   xmlns="http://www.w3.org/2000/svg"
   xmlns:sodipodi="http://sodipodi.sourceforge.net/DTD/sodipodi-0.dtd"
   xmlns:inkscape="http://www.inkscape.org/namespaces/inkscape"
   width="17mm"
   height="18mm"
   viewBox="0 0 17 18"
   version="1.1"
   id="svg8"
   inkscape:version="0.92.4 (f8dce91, 2019-08-02)"
   sodipodi:docname="drawing-24.svg">
  <defs
     id="defs2">
    <clipPath
       clipPathUnits="userSpaceOnUse"
       id="clipPath1363">
      <path
         d="m 436.22,594.375 h 34.271 V 549.561 H 436.22 Z"
         id="path1361"
         inkscape:connector-curvature="0" />
    </clipPath>
    <clipPath
       clipPathUnits="userSpaceOnUse"
       id="clipPath1143">
      <path
         d="M 192.425,502.158 H 241.48 V 457.303 H 192.425 Z"
         id="path1141"
         inkscape:connector-curvature="0" />
    </clipPath>
    <clipPath
       clipPathUnits="userSpaceOnUse"
       id="clipPath995">
      <path
         d="m 185.521,327.85 h 63.075 v -43.006 h -63.075 z"
         id="path993"
         inkscape:connector-curvature="0" />
    </clipPath>
    <clipPath
       clipPathUnits="userSpaceOnUse"
       id="clipPath1019">
      <path
         d="m 315.526,333.584 h 45.299 v -48.74 h -45.299 z"
         id="path1017"
         inkscape:connector-curvature="0" />
    </clipPath>
  </defs>
  <sodipodi:namedview
     id="base"
     pagecolor="#ffffff"
     bordercolor="#666666"
     borderopacity="1.0"
     inkscape:pageopacity="0.0"
     inkscape:pageshadow="2"
     inkscape:zoom="3.959798"
     inkscape:cx="53.803231"
     inkscape:cy="21.80419"
     inkscape:document-units="mm"
     inkscape:current-layer="layer1"
     showgrid="false"
     inkscape:window-width="1850"
     inkscape:window-height="1016"
     inkscape:window-x="70"
     inkscape:window-y="27"
     inkscape:window-maximized="1" />
  <metadata
     id="metadata5">
    <rdf:RDF>
      <cc:Work
         rdf:about="">
        <dc:format>image/svg+xml</dc:format>
        <dc:type
           rdf:resource="http://purl.org/dc/dcmitype/StillImage" />
        <dc:title></dc:title>
      </cc:Work>
    </rdf:RDF>
  </metadata>
  <g
     inkscape:label="Layer 1"
     inkscape:groupmode="layer"
     id="layer1"
     transform="translate(0,-279)">
    <g
       transform="matrix(0.35277777,0,0,-0.35277777,-110.8008,397.08379)"
       id="g1059">
      <g
         clip-path="url(#clipPath1019)"
         id="g1057"
         style="opacity:0.9">
        <g
           transform="translate(354.8047,330.7168)"
           id="g1023">
          <path
             d="m 0,0 h -30.391 c -0.792,0 -1.433,0.642 -1.433,1.434 0,0.792 0.641,1.433 1.433,1.433 H 0 C 0.792,2.867 1.434,2.226 1.434,1.434 1.434,0.642 0.792,0 0,0"
             style="fill:#E3F2FF;fill-opacity:1;fill-rule:nonzero;stroke:none"
             id="path1021"
             inkscape:connector-curvature="0" />
        </g>
        <g
           transform="translate(358.8184,324.9824)"
           id="g1027">
          <path
             d="m 0,0 h -38.418 c -0.792,0 -1.434,0.642 -1.434,1.434 0,0.792 0.642,1.433 1.434,1.433 H 0 C 0.792,2.867 1.434,2.226 1.434,1.434 1.434,0.642 0.792,0 0,0"
             style="fill:#E3F2FF;fill-opacity:1;fill-rule:nonzero;stroke:none"
             id="path1025"
             inkscape:connector-curvature="0" />
        </g>
        <g
           transform="translate(357.0986,319.248)"
           id="g1031">
          <path
             d="m 0,0 h -38.418 c -0.792,0 -1.434,0.643 -1.434,1.434 0,0.792 0.642,1.433 1.434,1.433 H 0 C 0.792,2.867 1.434,2.226 1.434,1.434 1.434,0.643 0.792,0 0,0"
             style="fill:#E3F2FF;fill-opacity:1;fill-rule:nonzero;stroke:none"
             id="path1029"
             inkscape:connector-curvature="0" />
        </g>
        <g
           transform="translate(353.085,313.5146)"
           id="g1035">
          <path
             d="m 0,0 h -36.125 c -0.792,0 -1.434,0.642 -1.434,1.434 0,0.792 0.642,1.433 1.434,1.433 H 0 C 0.791,2.867 1.434,2.226 1.434,1.434 1.434,0.642 0.791,0 0,0"
             style="fill:#E3F2FF;fill-opacity:1;fill-rule:nonzero;stroke:none"
             id="path1033"
             inkscape:connector-curvature="0" />
        </g>
        <g
           transform="translate(350.2178,307.7803)"
           id="g1039">
          <path
             d="m 0,0 h -31.537 c -0.792,0 -1.434,0.642 -1.434,1.434 0,0.792 0.642,1.433 1.434,1.433 H 0 C 0.792,2.867 1.434,2.226 1.434,1.434 1.434,0.642 0.792,0 0,0"
             style="fill:#E3F2FF;fill-opacity:1;fill-rule:nonzero;stroke:none"
             id="path1037"
             inkscape:connector-curvature="0" />
        </g>
        <g
           transform="translate(350.2178,302.0459)"
           id="g1043">
          <path
             d="m 0,0 h -25.804 c -0.792,0 -1.433,0.642 -1.433,1.434 0,0.792 0.641,1.433 1.433,1.433 H 0 C 0.792,2.867 1.434,2.226 1.434,1.434 1.434,0.642 0.792,0 0,0"
             style="fill:#E3F2FF;fill-opacity:1;fill-rule:nonzero;stroke:none"
             id="path1041"
             inkscape:connector-curvature="0" />
        </g>
        <g
           transform="translate(353.085,296.3125)"
           id="g1047">
          <path
             d="m 0,0 h -20.644 c -0.791,0 -1.433,0.642 -1.433,1.434 0,0.791 0.642,1.433 1.433,1.433 H 0 C 0.791,2.867 1.434,2.225 1.434,1.434 1.434,0.642 0.791,0 0,0"
             style="fill:#E3F2FF;fill-opacity:1;fill-rule:nonzero;stroke:none"
             id="path1045"
             inkscape:connector-curvature="0" />
        </g>
        <g
           transform="translate(357.6719,290.5781)"
           id="g1051">
          <path
             d="m 0,0 h -14.909 c -0.791,0 -1.433,0.642 -1.433,1.434 0,0.792 0.642,1.433 1.433,1.433 H 0 C 0.792,2.867 1.434,2.226 1.434,1.434 1.434,0.642 0.792,0 0,0"
             style="fill:#E3F2FF;fill-opacity:1;fill-rule:nonzero;stroke:none"
             id="path1049"
             inkscape:connector-curvature="0" />
        </g>
        <g
           transform="translate(359.3916,284.8437)"
           id="g1055">
          <path
             d="m 0,0 h -6.307 c -0.792,0 -1.433,0.642 -1.433,1.434 0,0.792 0.641,1.433 1.433,1.433 H 0 C 0.792,2.867 1.434,2.226 1.434,1.434 1.434,0.642 0.792,0 0,0"
             style="fill:#E3F2FF;fill-opacity:1;fill-rule:nonzero;stroke:none"
             id="path1053"
             inkscape:connector-curvature="0" />
        </g>
      </g>
    </g>
  </g>
</svg>
