<?xml version="1.0" encoding="UTF-8" standalone="no"?>
<!-- Created with Inkscape (http://www.inkscape.org/) -->

<svg
   xmlns:dc="http://purl.org/dc/elements/1.1/"
   xmlns:cc="http://creativecommons.org/ns#"
   xmlns:rdf="http://www.w3.org/1999/02/22-rdf-syntax-ns#"
   xmlns:svg="http://www.w3.org/2000/svg"
   xmlns="http://www.w3.org/2000/svg"
   xmlns:sodipodi="http://sodipodi.sourceforge.net/DTD/sodipodi-0.dtd"
   xmlns:inkscape="http://www.inkscape.org/namespaces/inkscape"
   width="23mm"
   height="21mm"
   viewBox="0 0 23 21"
   version="1.1"
   id="svg8"
   inkscape:version="0.92.4 (f8dce91, 2019-08-02)"
   sodipodi:docname="drawing-2.svg">
  <defs
     id="defs2" />
  <sodipodi:namedview
     id="base"
     pagecolor="#ffffff"
     bordercolor="#666666"
     borderopacity="1.0"
     inkscape:pageopacity="0.0"
     inkscape:pageshadow="2"
     inkscape:zoom="3.959798"
     inkscape:cx="53.803231"
     inkscape:cy="-8.5003863"
     inkscape:document-units="mm"
     inkscape:current-layer="layer1"
     showgrid="false"
     inkscape:window-width="1850"
     inkscape:window-height="1016"
     inkscape:window-x="70"
     inkscape:window-y="27"
     inkscape:window-maximized="1" />
  <metadata
     id="metadata5">
    <rdf:RDF>
      <cc:Work
         rdf:about="">
        <dc:format>image/svg+xml</dc:format>
        <dc:type
           rdf:resource="http://purl.org/dc/dcmitype/StillImage" />
        <dc:title></dc:title>
      </cc:Work>
    </rdf:RDF>
  </metadata>
  <g
     inkscape:label="Layer 1"
     inkscape:groupmode="layer"
     id="layer1"
     transform="translate(0,-276)">
    <g
       transform="matrix(0.35277777,0,0,-0.35277777,-150.87832,1064.6414)"
       style="opacity:0.9"
       id="g3104">
      <g
         id="g2651"
         transform="translate(440.854,2190.7129)">
        <path
           inkscape:connector-curvature="0"
           id="path2649"
           style="fill:#C2CDE7;fill-opacity:1;fill-rule:nonzero;stroke:none"
           d="m 0,0 c -0.074,0 -0.148,0.006 -0.225,0.019 -6.978,1.192 -12.044,7.186 -12.044,14.252 0,7.973 6.518,14.46 14.53,14.46 1.635,0 3.22,-0.261 4.727,-0.779 2.6,9.742 11.478,16.656 21.689,16.656 12.382,0 22.454,-10.056 22.454,-22.417 0,-7.775 -3.943,-14.875 -10.55,-18.991 -0.619,-0.387 -1.434,-0.197 -1.819,0.423 -0.386,0.619 -0.198,1.433 0.422,1.819 5.827,3.631 9.305,9.892 9.305,16.749 0,10.904 -8.887,19.775 -19.812,19.775 -9.483,0 -17.663,-6.759 -19.451,-16.071 C 9.148,25.493 8.89,25.149 8.524,24.965 8.16,24.78 7.73,24.774 7.361,24.951 5.772,25.707 4.057,26.09 2.261,26.09 -4.294,26.09 -9.627,20.788 -9.627,14.271 -9.627,8.496 -5.485,3.598 0.221,2.623 0.939,2.5 1.423,1.817 1.3,1.099 1.19,0.455 0.632,0 0,0" />
      </g>
      <g
         id="g2655"
         transform="translate(445.228,2187.4614)">
        <path
           inkscape:connector-curvature="0"
           id="path2653"
           style="fill:#74A0D9;fill-opacity:1;fill-rule:nonzero;stroke:none"
           d="M 0,0 C -0.632,0.365 -0.848,1.172 -0.483,1.804 L 2.951,7.752 C 3.315,8.384 4.123,8.6 4.755,8.235 5.387,7.871 5.604,7.063 5.238,6.431 L 1.805,0.483 C 1.439,-0.148 0.632,-0.365 0,0" />
      </g>
      <g
         id="g2659"
         transform="translate(453.6812,2187.4614)">
        <path
           inkscape:connector-curvature="0"
           id="path2657"
           style="fill:#74A0D9;fill-opacity:1;fill-rule:nonzero;stroke:none"
           d="M 0,0 C -0.632,0.365 -0.848,1.172 -0.483,1.804 L 2.951,7.752 C 3.315,8.384 4.123,8.6 4.755,8.235 5.387,7.871 5.604,7.063 5.238,6.431 L 1.805,0.483 C 1.439,-0.148 0.632,-0.365 0,0" />
      </g>
      <g
         id="g2663"
         transform="translate(462.1343,2187.4614)">
        <path
           inkscape:connector-curvature="0"
           id="path2661"
           style="fill:#74A0D9;fill-opacity:1;fill-rule:nonzero;stroke:none"
           d="M 0,0 C -0.632,0.365 -0.848,1.172 -0.483,1.804 L 2.951,7.752 C 3.315,8.384 4.123,8.6 4.755,8.235 5.387,7.871 5.604,7.063 5.238,6.431 L 1.805,0.483 C 1.439,-0.148 0.632,-0.365 0,0" />
      </g>
      <g
         id="g2667"
         transform="translate(470.5874,2187.4614)">
        <path
           inkscape:connector-curvature="0"
           id="path2665"
           style="fill:#74A0D9;fill-opacity:1;fill-rule:nonzero;stroke:none"
           d="M 0,0 C -0.632,0.365 -0.848,1.172 -0.483,1.804 L 2.951,7.752 C 3.315,8.384 4.123,8.6 4.755,8.235 5.387,7.871 5.604,7.063 5.238,6.431 L 1.805,0.483 C 1.439,-0.148 0.632,-0.365 0,0" />
      </g>
      <g
         id="g2671"
         transform="translate(444.1714,2176.3667)">
        <path
           inkscape:connector-curvature="0"
           id="path2669"
           style="fill:#74A0D9;fill-opacity:1;fill-rule:nonzero;stroke:none"
           d="M 0,0 C -0.632,0.365 -0.849,1.172 -0.483,1.804 L 2.951,7.752 C 3.315,8.384 4.123,8.6 4.755,8.235 5.387,7.871 5.604,7.063 5.238,6.431 L 1.805,0.483 C 1.439,-0.149 0.632,-0.365 0,0" />
      </g>
      <g
         id="g2675"
         transform="translate(452.6245,2176.3667)">
        <path
           inkscape:connector-curvature="0"
           id="path2673"
           style="fill:#74A0D9;fill-opacity:1;fill-rule:nonzero;stroke:none"
           d="M 0,0 C -0.632,0.365 -0.848,1.172 -0.483,1.804 L 2.951,7.752 C 3.315,8.384 4.123,8.6 4.755,8.235 5.387,7.871 5.604,7.063 5.238,6.431 L 1.805,0.483 C 1.439,-0.149 0.632,-0.365 0,0" />
      </g>
      <g
         id="g2679"
         transform="translate(461.0776,2176.3667)">
        <path
           inkscape:connector-curvature="0"
           id="path2677"
           style="fill:#74A0D9;fill-opacity:1;fill-rule:nonzero;stroke:none"
           d="M 0,0 C -0.632,0.365 -0.848,1.172 -0.483,1.804 L 2.951,7.752 C 3.315,8.384 4.123,8.6 4.755,8.235 5.387,7.871 5.604,7.063 5.238,6.431 L 1.805,0.483 C 1.439,-0.149 0.632,-0.365 0,0" />
      </g>
    </g>
  </g>
</svg>
