<?xml version="1.0" encoding="UTF-8" standalone="no"?>
<!-- Created with Inkscape (http://www.inkscape.org/) -->

<svg
   xmlns:dc="http://purl.org/dc/elements/1.1/"
   xmlns:cc="http://creativecommons.org/ns#"
   xmlns:rdf="http://www.w3.org/1999/02/22-rdf-syntax-ns#"
   xmlns:svg="http://www.w3.org/2000/svg"
   xmlns="http://www.w3.org/2000/svg"
   xmlns:sodipodi="http://sodipodi.sourceforge.net/DTD/sodipodi-0.dtd"
   xmlns:inkscape="http://www.inkscape.org/namespaces/inkscape"
   width="512"
   height="468.18399"
   viewBox="0 0 135.46667 123.87368"
   version="1.1"
   id="svg8"
   inkscape:version="0.92.4 (5da689c313, 2019-01-14)"
   sodipodi:docname="snow.svg">
  <defs
     id="defs2" />
  <sodipodi:namedview
     id="base"
     pagecolor="#ffffff"
     bordercolor="#666666"
     borderopacity="1.0"
     inkscape:pageopacity="0.0"
     inkscape:pageshadow="2"
     inkscape:zoom="0.70000001"
     inkscape:cx="301.44578"
     inkscape:cy="181.54628"
     inkscape:document-units="mm"
     inkscape:current-layer="layer1"
     showgrid="false"
     inkscape:window-width="1850"
     inkscape:window-height="1016"
     inkscape:window-x="70"
     inkscape:window-y="27"
     inkscape:window-maximized="1"
     units="px" />
  <metadata
     id="metadata5">
    <rdf:RDF>
      <cc:Work
         rdf:about="">
        <dc:format>image/svg+xml</dc:format>
        <dc:type
           rdf:resource="http://purl.org/dc/dcmitype/StillImage" />
        <dc:title></dc:title>
      </cc:Work>
    </rdf:RDF>
  </metadata>
  <g
     inkscape:label="Layer 1"
     inkscape:groupmode="layer"
     id="layer1"
     transform="translate(0,-173.12632)">
    <g
       transform="matrix(-2.1367656,0,0,-2.1367552,1312.413,4949.4026)"
       style="opacity:0.9"
       id="g3147">
      <g
         id="g2683"
         transform="translate(571.6753,2185.2461)">
        <path
           inkscape:connector-curvature="0"
           id="path2681"
           style="fill:#b6dcfe;fill-opacity:1;fill-rule:nonzero;stroke:none"
           d="m 0,0 c 0,-0.876 -0.709,-1.585 -1.585,-1.585 -0.875,0 -1.585,0.709 -1.585,1.585 0,0.875 0.71,1.585 1.585,1.585 C -0.709,1.585 0,0.875 0,0" />
      </g>
      <g
         id="g2687"
         transform="translate(580.1284,2185.2461)">
        <path
           inkscape:connector-curvature="0"
           id="path2685"
           style="fill:#b6dcfe;fill-opacity:1;fill-rule:nonzero;stroke:none"
           d="m 0,0 c 0,-0.876 -0.709,-1.585 -1.585,-1.585 -0.875,0 -1.585,0.709 -1.585,1.585 0,0.875 0.71,1.585 1.585,1.585 C -0.709,1.585 0,0.875 0,0" />
      </g>
      <g
         id="g2691"
         transform="translate(588.5825,2185.2461)">
        <path
           inkscape:connector-curvature="0"
           id="path2689"
           style="fill:#b6dcfe;fill-opacity:1;fill-rule:nonzero;stroke:none"
           d="m 0,0 c 0,-0.876 -0.71,-1.585 -1.585,-1.585 -0.876,0 -1.585,0.709 -1.585,1.585 0,0.875 0.709,1.585 1.585,1.585 C -0.71,1.585 0,0.875 0,0" />
      </g>
      <g
         id="g2695"
         transform="translate(597.0356,2185.2461)">
        <path
           inkscape:connector-curvature="0"
           id="path2693"
           style="fill:#b6dcfe;fill-opacity:1;fill-rule:nonzero;stroke:none"
           d="m 0,0 c 0,-0.876 -0.71,-1.585 -1.585,-1.585 -0.876,0 -1.585,0.709 -1.585,1.585 0,0.875 0.709,1.585 1.585,1.585 C -0.71,1.585 0,0.875 0,0" />
      </g>
      <g
         id="g2699"
         transform="translate(575.9019,2178.9063)">
        <path
           inkscape:connector-curvature="0"
           id="path2697"
           style="fill:#b6dcfe;fill-opacity:1;fill-rule:nonzero;stroke:none"
           d="m 0,0 c 0,-0.876 -0.709,-1.585 -1.585,-1.585 -0.875,0 -1.585,0.709 -1.585,1.585 0,0.875 0.71,1.585 1.585,1.585 C -0.709,1.585 0,0.875 0,0" />
      </g>
      <g
         id="g2703"
         transform="translate(584.356,2178.9063)">
        <path
           inkscape:connector-curvature="0"
           id="path2701"
           style="fill:#b6dcfe;fill-opacity:1;fill-rule:nonzero;stroke:none"
           d="m 0,0 c 0,-0.876 -0.71,-1.585 -1.586,-1.585 -0.875,0 -1.585,0.709 -1.585,1.585 0,0.875 0.71,1.585 1.585,1.585 C -0.71,1.585 0,0.875 0,0" />
      </g>
      <g
         id="g2707"
         transform="translate(592.8091,2178.9063)">
        <path
           inkscape:connector-curvature="0"
           id="path2705"
           style="fill:#b6dcfe;fill-opacity:1;fill-rule:nonzero;stroke:none"
           d="m 0,0 c 0,-0.876 -0.71,-1.585 -1.585,-1.585 -0.876,0 -1.585,0.709 -1.585,1.585 0,0.875 0.709,1.585 1.585,1.585 C -0.71,1.585 0,0.875 0,0" />
      </g>
      <g
         id="g2711"
         transform="translate(565.3354,2216.8091)">
        <path
           inkscape:connector-curvature="0"
           id="path2709"
           style="fill:#c2cde7;fill-opacity:1;fill-rule:nonzero;stroke:none"
           d="m 0,0 c -6.554,0 -11.887,-5.388 -11.887,-11.905 0,-6.518 5.333,-11.906 11.887,-11.906 h 26.417 c 10.924,0 19.812,8.941 19.812,19.826 0,10.904 -8.888,19.818 -19.812,19.818 C 16.934,15.833 8.753,9.096 6.965,-0.217 6.888,-0.618 6.629,-0.951 6.265,-1.135 5.9,-1.32 5.47,-1.321 5.101,-1.144 3.512,-0.389 1.796,0 0,0 M 26.417,-26.811 H 0 c -8.011,0 -14.528,6.753 -14.528,14.727 0,7.973 6.517,14.593 14.528,14.593 1.637,0 3.221,-0.196 4.728,-0.713 2.599,9.742 11.478,16.689 21.689,16.689 12.381,0 22.453,-10.306 22.453,-22.666 0,-12.341 -10.072,-22.63 -22.453,-22.63" />
      </g>
    </g>
  </g>
</svg>
